{"glyphs":{"0":{"ha":499,"x_min":21,"x_max":478,"o":"m 21 488 q 39 678 21 589 q 88 833 57 767 q 160 937 119 899 q 249 975 201 975 q 338 937 296 975 q 410 833 379 899 q 460 678 442 767 q 478 488 478 589 q 460 297 478 386 q 410 142 442 208 q 338 38 379 76 q 249 0 296 0 q 160 38 201 0 q 88 142 119 76 q 39 297 57 208 q 21 488 21 386 m 249 65 q 285 99 268 65 q 314 189 301 132 q 334 323 326 246 q 342 488 342 400 q 334 652 342 575 q 314 786 326 729 q 285 876 301 843 q 249 910 268 910 q 213 876 229 910 q 183 786 196 843 q 163 652 171 729 q 156 488 156 575 q 163 323 156 400 q 183 189 171 246 q 213 99 196 132 q 249 65 229 65 z "},"1":{"ha":381,"x_min":69,"x_max":361,"o":"m 361 0 l 144 0 l 178 65 l 178 786 l 69 742 l 253 975 l 328 975 l 328 65 l 361 0 z "},"2":{"ha":763,"x_min":69,"x_max":693,"o":"m 69 0 l 351 488 q 367 514 358 500 q 384 544 374 526 q 406 581 394 561 q 426 631 417 601 q 438 696 435 661 q 435 766 440 731 q 411 832 429 801 q 373 871 394 860 q 331 882 351 882 q 288 870 307 882 q 261 843 268 858 q 262 804 250 815 q 299 774 274 793 q 314 740 311 764 q 309 690 317 715 q 282 645 301 665 q 231 624 263 625 q 235 642 236 633 q 228 656 235 649 q 203 667 222 664 q 168 688 185 671 q 143 730 151 704 q 140 788 135 756 q 168 851 144 819 q 273 947 215 918 q 392 975 331 975 q 457 965 422 975 q 523 936 492 956 q 577 885 554 917 q 607 813 600 854 q 608 731 614 771 q 587 653 601 692 q 552 578 572 615 q 510 503 532 540 q 509 501 510 501 q 508 499 508 500 l 299 136 q 369 178 332 160 q 440 204 401 193 q 518 208 479 215 q 578 185 557 203 q 610 148 599 168 q 629 108 622 128 q 646 75 636 88 q 662 60 654 64 q 676 57 669 57 q 689 60 683 57 q 693 63 690 61 q 658 32 678 44 q 617 10 642 19 q 560 0 592 0 q 513 19 528 0 q 488 62 497 39 q 472 103 479 85 q 446 121 464 122 q 403 104 429 121 q 347 67 378 88 q 284 26 317 46 q 219 1 251 7 l 221 1 l 219 0 l 69 0 m 508 499 q 510 501 510 501 l 508 499 z "},"3":{"ha":660,"x_min":69,"x_max":654,"o":"m 253 233 q 249 188 244 207 q 269 155 254 168 q 304 135 283 142 q 349 129 325 129 q 425 147 389 129 q 480 194 458 164 q 507 260 501 225 q 498 333 513 296 q 443 404 483 371 q 388 438 418 425 q 331 458 358 450 q 278 468 303 465 q 238 471 253 471 l 218 471 l 458 894 q 388 894 428 894 q 312 890 349 893 q 246 883 275 888 q 206 868 217 878 q 182 840 189 856 q 174 806 175 824 q 174 770 172 789 q 178 732 176 751 q 176 703 179 713 q 171 688 174 693 q 163 682 168 682 q 163 694 164 685 q 161 716 163 701 q 154 756 160 731 q 142 819 149 782 q 128 890 135 856 q 113 975 121 932 l 654 975 l 421 563 q 524 528 481 556 q 596 460 568 500 q 635 374 624 421 q 640 279 646 326 q 603 151 632 204 q 534 64 575 97 q 444 15 493 31 q 344 0 394 0 q 260 11 301 0 q 189 42 219 22 q 140 91 158 63 q 121 154 121 119 q 125 191 121 178 q 133 214 129 204 q 138 235 136 224 q 133 267 139 246 q 117 299 128 288 q 96 314 107 310 q 69 319 83 319 q 117 340 90 333 q 168 347 143 347 q 210 341 190 347 q 243 321 231 335 q 259 285 256 307 q 253 233 263 264 z "},"4":{"ha":756,"x_min":69,"x_max":686,"o":"m 69 382 l 292 975 l 442 975 l 219 382 q 258 394 236 388 q 308 406 278 400 q 379 417 339 411 l 379 632 l 563 632 l 529 567 l 529 428 q 601 422 571 426 q 650 410 631 417 q 686 394 672 403 l 633 318 q 618 331 631 325 q 586 341 607 336 q 529 347 565 346 l 529 65 l 563 0 l 346 0 l 379 65 l 379 339 q 285 325 331 333 q 204 308 240 317 q 128 290 164 300 l 69 382 z "},"5":{"ha":554,"x_min":14,"x_max":539,"o":"m 35 269 q 35 301 38 289 q 26 321 32 313 q 14 335 22 329 q 73 336 44 342 q 122 316 101 331 q 149 280 142 301 q 147 235 157 258 q 140 186 136 208 q 158 149 144 164 q 192 124 171 133 q 238 115 214 115 q 288 126 263 115 q 335 158 314 136 q 372 217 357 181 q 389 303 386 253 q 378 414 393 368 q 335 489 364 460 q 268 532 307 518 q 185 546 229 546 q 78 529 132 546 l 78 975 l 539 975 q 522 890 531 932 q 509 819 515 856 q 497 756 503 782 q 489 694 489 706 q 489 682 488 685 q 481 688 483 682 q 475 703 478 693 q 474 732 472 713 q 476 770 475 751 q 476 806 478 789 q 469 840 475 824 q 446 868 463 856 q 412 883 435 878 q 359 890 389 888 q 295 893 329 893 q 228 893 261 893 l 228 624 q 299 635 268 635 q 407 601 361 635 q 479 513 453 568 q 513 388 506 458 q 507 244 521 318 q 467 138 496 183 q 399 62 439 92 q 313 17 360 32 q 221 1 267 1 q 97 35 151 1 q 22 136 42 68 q 17 176 17 160 q 19 208 17 193 q 27 237 22 222 q 35 269 32 251 z "},"6":{"ha":589,"x_min":14,"x_max":572,"o":"m 360 975 q 450 955 408 975 q 513 890 492 935 q 532 802 536 843 q 515 726 528 761 q 493 664 503 692 q 494 615 483 636 q 444 628 468 618 q 405 653 425 636 q 374 697 385 669 q 364 747 363 725 q 371 785 365 768 q 380 816 376 801 q 376 846 383 831 q 335 883 361 883 q 282 851 310 883 q 233 765 254 818 q 203 648 213 713 q 203 518 193 583 q 342 576 264 576 q 432 554 390 576 q 505 493 474 532 q 554 401 536 454 q 572 289 572 349 q 551 163 572 217 q 496 73 531 108 q 417 19 461 38 q 324 1 372 1 q 240 15 282 1 q 160 56 197 29 q 92 124 122 83 q 46 219 63 165 q 20 363 26 282 q 24 527 14 443 q 58 692 33 611 q 124 835 83 772 q 224 938 165 899 q 360 975 283 976 m 319 88 q 361 104 342 88 q 395 150 381 121 q 418 219 410 179 q 426 304 426 258 q 418 388 426 349 q 395 457 410 428 q 361 503 381 486 q 319 519 342 519 q 278 503 297 519 q 244 457 258 486 q 221 388 229 428 q 213 304 213 349 q 221 219 213 258 q 244 150 229 179 q 278 104 258 121 q 319 88 297 88 z "},"7":{"ha":707,"x_min":69,"x_max":638,"o":"m 69 975 l 638 975 l 321 36 l 339 0 l 146 0 l 181 65 l 181 64 l 460 894 q 367 894 415 894 q 278 890 319 893 q 205 882 236 888 q 163 868 174 876 q 140 840 146 856 q 132 806 133 824 q 132 770 131 789 q 135 732 133 751 q 133 703 136 713 q 128 688 131 693 q 119 682 125 682 q 119 694 121 685 q 118 716 119 701 q 111 756 117 731 q 100 819 107 782 q 86 890 93 856 q 69 975 78 932 z "},"8":{"ha":613,"x_min":13,"x_max":600,"o":"m 13 314 q 53 475 13 403 q 161 588 94 547 q 99 662 122 618 q 76 757 76 706 q 94 842 76 803 q 144 911 113 882 q 217 958 175 940 q 306 975 258 975 q 396 958 354 975 q 469 911 438 940 q 518 842 500 882 q 536 757 536 803 q 513 662 536 706 q 451 588 490 618 q 559 475 518 547 q 600 314 600 403 q 577 192 600 249 q 514 92 554 135 q 420 24 474 49 q 306 0 367 0 q 192 24 246 0 q 99 92 139 49 q 35 192 58 135 q 13 314 13 249 m 306 89 q 358 107 333 89 q 400 156 382 125 q 428 227 418 186 q 439 314 439 268 q 428 402 439 361 q 400 474 418 443 q 358 522 382 504 q 306 539 333 539 q 255 522 279 539 q 213 474 231 504 q 184 402 194 443 q 174 314 174 361 q 184 227 174 268 q 213 156 194 186 q 255 107 231 125 q 306 89 279 89 m 306 589 q 335 602 321 589 q 359 638 349 615 q 376 692 369 661 q 382 757 382 722 q 376 823 382 792 q 359 877 369 854 q 335 913 349 900 q 306 926 321 926 q 277 913 290 926 q 253 877 264 900 q 237 823 243 854 q 231 757 231 792 q 237 692 231 722 q 253 638 243 661 q 277 602 264 615 q 306 589 290 589 z "},"9":{"ha":589,"x_min":17,"x_max":574,"o":"m 93 361 q 143 349 119 358 q 183 325 163 342 q 214 281 203 308 q 224 231 225 251 q 217 192 222 210 q 209 161 213 175 q 211 132 206 147 q 253 94 226 94 q 306 127 278 94 q 354 213 333 160 q 385 331 375 265 q 385 460 396 396 q 322 416 357 432 q 246 400 286 400 q 157 423 199 400 q 84 485 115 446 q 35 576 53 524 q 17 689 17 629 q 38 815 17 761 q 93 905 58 869 q 172 958 128 940 q 264 975 217 975 q 349 961 307 975 q 428 920 392 947 q 495 853 465 893 q 542 758 525 813 q 568 615 563 696 q 565 451 574 535 q 531 285 556 367 q 465 141 506 204 q 365 40 424 78 q 229 1 306 1 q 139 22 181 1 q 75 86 97 43 q 56 175 51 133 q 72 251 60 217 q 95 313 85 285 q 93 361 106 340 m 163 674 q 171 590 163 629 q 194 521 179 550 q 228 474 208 492 q 269 457 247 457 q 311 474 292 457 q 345 521 331 492 q 368 590 360 550 q 376 674 376 629 q 368 758 376 718 q 345 826 360 797 q 311 873 331 856 q 269 890 292 890 q 228 873 247 890 q 194 826 208 856 q 171 758 179 797 q 163 674 163 718 z "},"µ":{"ha":732,"x_min":69,"x_max":663,"o":"m 663 972 l 663 0 l 69 0 l 69 972 l 663 972 m 365 515 l 624 944 l 108 944 l 365 515 m 99 903 l 99 68 l 349 486 l 99 903 m 110 29 l 624 29 l 367 457 l 110 29 m 635 65 l 635 906 l 383 486 l 635 65 z "},"\u0000":{"ha":0,"x_min":0,"x_max":0,"o":""},"\r":{"ha":0,"x_min":0,"x_max":0,"o":""}," ":{"ha":426,"x_min":0,"x_max":0,"o":""},"\n":{"ha":0,"x_min":0,"x_max":0,"o":""},"A":{"ha":588,"x_min":-12,"x_max":597,"o":"m 53 546 q 56 492 49 515 q 81 460 63 472 q 139 454 99 447 q 169 458 154 458 l 246 914 q 236 948 246 933 q 203 972 226 963 l 399 972 q 420 861 407 931 q 449 708 433 792 q 484 538 465 625 q 522 373 503 450 q 560 237 540 296 q 597 154 579 178 l 388 154 l 408 183 l 388 281 q 354 338 374 313 q 312 378 338 360 q 251 397 286 396 q 242 397 247 397 q 233 396 238 397 l 164 -18 l 190 -56 l 58 -56 q 74 -33 65 -49 q 90 -3 83 -18 l 153 360 q 74 332 110 332 q 17 356 39 332 q -8 414 -4 381 q 2 484 -12 447 q 53 546 17 521 m 367 388 l 293 750 l 244 458 q 367 388 325 446 z "},"B":{"ha":801,"x_min":-8,"x_max":807,"o":"m 78 492 q 110 522 104 507 q 114 550 117 538 q 99 578 111 564 q 135 558 118 571 q 163 531 149 547 q 183 489 176 514 q 185 444 190 464 q 171 406 181 425 q 151 363 161 386 q 139 306 142 339 q 143 237 136 275 q 174 165 150 199 q 240 109 197 132 q 350 86 282 86 q 387 88 368 86 q 428 93 406 89 q 552 148 504 107 q 622 244 600 189 q 639 358 643 299 q 608 467 635 418 q 531 549 581 517 q 413 581 482 582 l 411 213 l 454 154 l 219 154 l 261 213 l 261 914 q 219 972 261 951 l 472 972 q 565 951 524 972 q 633 897 606 931 q 672 822 660 864 q 676 740 683 781 q 641 665 669 700 q 560 607 613 629 q 656 574 613 599 q 732 513 700 550 q 783 432 764 476 q 804 340 803 388 q 770 194 807 257 q 672 87 733 131 q 531 21 610 43 q 371 -1 453 -1 q 182 34 272 -1 q 39 142 92 69 q -1 241 7 186 q 1 347 -8 296 q 31 438 10 397 q 78 492 51 478 m 551 704 q 560 774 563 740 q 540 838 557 808 q 490 887 522 867 q 411 914 458 907 l 411 600 q 448 610 428 603 q 488 628 468 617 q 526 659 508 640 q 551 704 543 678 z "},"C":{"ha":517,"x_min":13,"x_max":525,"o":"m 81 856 q 182 953 119 925 q 300 968 244 981 q 347 949 328 963 q 383 924 367 936 q 413 906 399 913 q 442 906 426 899 q 481 934 465 917 q 510 951 496 951 q 525 943 517 951 l 406 646 q 397 644 401 644 q 386 656 388 644 q 386 676 385 663 q 386 708 388 689 q 380 749 385 726 q 361 797 375 772 q 326 839 346 824 q 285 854 306 854 q 211 796 242 854 q 178 691 190 754 q 165 556 167 628 q 172 413 164 485 q 196 285 179 342 q 238 192 213 228 q 294 156 263 156 q 326 169 303 156 q 375 206 350 182 q 419 265 400 231 q 440 342 439 299 q 456 335 449 342 q 464 315 461 328 q 463 274 467 301 q 440 201 458 247 q 395 111 422 156 q 334 34 368 67 q 264 1 300 1 q 156 47 203 1 q 78 167 110 93 q 29 335 46 242 q 13 524 13 429 q 29 707 13 619 q 81 856 46 794 z "},"D":{"ha":822,"x_min":-6,"x_max":822,"o":"m 94 525 q 99 547 100 535 q 90 578 99 558 q 115 567 97 575 q 148 544 132 560 q 172 504 164 529 q 168 440 179 479 q 140 309 147 371 q 151 201 132 247 q 220 128 169 154 q 368 103 271 101 q 494 145 440 106 q 584 244 549 185 q 638 374 619 304 q 656 507 656 444 q 636 646 657 579 q 582 767 615 713 q 506 863 549 822 q 419 922 464 903 l 419 213 l 463 154 l 228 154 l 269 213 l 269 914 q 228 972 268 958 l 453 972 q 589 938 526 972 q 699 844 651 903 q 776 711 746 786 q 815 554 807 636 q 806 391 822 472 q 743 239 789 310 q 558 65 665 121 q 343 6 451 8 q 213 24 275 4 q 103 84 150 44 q 26 182 56 124 q -4 315 -3 240 q 8 408 -6 374 q 38 463 21 442 q 71 496 54 483 q 94 525 88 508 z "},"E":{"ha":703,"x_min":-8,"x_max":961,"o":"m 265 935 l 703 935 l 703 717 q 675 781 692 753 q 637 824 660 804 q 581 844 614 844 l 414 844 l 414 593 l 560 593 l 589 633 l 589 461 l 558 503 l 415 503 l 415 181 q 490 167 440 183 q 607 86 539 151 q 777 -54 707 -11 q 893 -92 847 -97 q 930 -78 917 -89 q 950 -56 943 -67 q 961 -26 958 -43 q 939 -119 956 -79 q 893 -185 924 -156 q 808 -217 863 -215 q 713 -191 754 -219 q 636 -122 671 -162 q 569 -37 601 -82 q 503 38 538 7 q 434 83 468 67 q 373 107 400 100 q 328 115 346 114 q 310 117 311 117 l 222 117 l 265 175 l 265 843 q 235 833 250 840 q 207 814 219 826 q 178 780 193 800 q 151 735 163 760 q 138 678 140 710 q 144 606 135 646 q 151 540 156 567 q 135 494 146 513 q 103 463 122 475 q 110 493 111 478 q 101 523 110 507 q 64 554 92 539 q 8 613 25 576 q -6 692 -8 650 q 16 778 -4 735 q 72 856 36 821 q 156 913 107 890 q 265 935 206 935 z "},"F":{"ha":694,"x_min":-10,"x_max":701,"o":"m 264 972 l 701 972 l 701 754 q 674 818 690 790 q 635 862 658 842 q 579 882 613 882 l 414 882 l 414 536 l 558 536 l 588 576 l 588 404 l 557 446 l 414 446 l 414 58 l 456 1 l 221 1 l 264 58 l 264 881 q 233 871 249 878 q 206 851 218 864 q 176 817 192 838 q 150 772 161 797 q 136 715 139 747 q 143 643 133 683 q 149 577 154 604 q 133 532 144 550 q 101 500 121 513 q 108 531 110 515 q 99 560 108 544 q 63 592 90 576 q 7 651 24 614 q -8 730 -10 688 q 15 815 -6 772 q 70 893 35 858 q 155 950 106 928 q 264 972 204 972 z "},"G":{"ha":581,"x_min":8,"x_max":583,"o":"m 10 500 q 32 679 11 592 q 96 833 53 767 q 203 939 139 900 q 356 971 268 978 q 451 953 418 967 q 499 929 485 939 l 583 957 l 403 732 q 408 769 406 751 q 413 800 411 785 q 417 824 415 815 q 410 851 417 839 q 389 869 403 861 q 347 878 375 878 q 283 849 311 878 q 234 771 254 819 q 201 660 214 722 q 184 530 189 597 q 183 396 179 463 q 197 273 186 329 q 227 176 208 217 q 274 121 246 136 q 317 108 299 108 q 363 129 344 108 q 393 182 381 150 l 393 292 q 379 300 388 296 q 363 306 372 303 q 342 308 354 308 l 563 418 l 543 376 l 543 0 l 524 0 l 467 89 q 441 59 457 75 q 405 30 425 43 q 360 8 385 17 q 306 0 335 0 q 178 43 233 0 q 85 157 122 86 q 28 317 47 228 q 10 500 8 407 z "},"H":{"ha":793,"x_min":-12,"x_max":785,"o":"m -4 669 q 19 633 3 649 q 60 610 35 619 q 129 608 86 601 q 173 613 149 611 q 225 614 197 615 l 225 915 q 215 948 224 933 q 183 972 206 963 l 418 972 q 375 915 379 954 l 375 603 q 498 571 440 592 q 593 515 556 550 l 593 915 q 550 972 586 951 l 785 972 q 742 915 746 949 l 742 213 l 785 154 l 550 154 l 593 213 l 593 440 q 538 488 575 465 q 433 507 501 510 q 404 505 418 506 q 375 501 390 504 l 375 54 l 418 -3 l 183 -3 l 225 54 l 225 471 q 162 458 192 464 q 106 453 132 453 q 46 467 69 453 q 6 514 18 485 q -10 574 -7 543 q -10 631 -12 604 q -4 669 -7 657 z "},"I":{"ha":253,"x_min":8,"x_max":243,"o":"m 51 56 l 51 915 q 8 972 47 953 l 243 972 q 201 915 201 953 l 201 56 l 243 -1 l 8 -1 l 51 56 z "},"J":{"ha":508,"x_min":-21,"x_max":511,"o":"m 146 89 q 243 182 207 124 q 299 313 279 240 q 324 466 318 385 q 328 629 329 547 q 322 788 326 711 q 318 929 318 865 q 260 913 286 932 q 228 861 235 893 q 229 822 224 844 q 240 774 235 800 q 248 719 246 749 q 238 658 250 690 q 202 609 226 626 q 153 583 178 592 q 92 572 125 574 q 116 611 113 579 q 119 688 119 643 q 120 782 118 732 q 141 874 122 832 q 201 944 160 917 q 318 972 242 972 l 511 972 q 469 914 472 950 l 468 863 q 472 706 468 796 q 474 520 476 615 q 456 332 471 425 q 401 165 440 239 q 295 47 363 92 q 119 1 228 1 q 57 4 83 1 q 13 10 31 7 q -21 17 -7 13 q 24 31 -1 21 q 76 53 46 39 q 146 89 107 67 z "},"K":{"ha":592,"x_min":7,"x_max":794,"o":"m 7 119 l 50 179 l 50 913 q 7 972 46 956 l 242 972 q 200 913 206 950 l 200 678 q 297 779 263 715 q 339 914 332 843 q 299 972 335 953 l 518 972 q 476 914 488 951 q 410 743 457 813 q 272 621 363 674 q 298 581 279 615 q 342 496 317 547 q 399 381 368 444 q 465 253 431 318 q 533 125 499 188 q 601 14 568 63 q 662 -64 633 -35 q 711 -93 690 -93 q 743 -64 731 -93 q 765 -37 750 -49 q 794 -32 781 -26 q 783 -46 788 -36 q 777 -67 779 -53 q 778 -104 775 -81 q 778 -150 782 -128 q 764 -190 775 -172 q 731 -219 753 -208 q 676 -231 710 -231 q 558 -183 611 -231 q 463 -63 506 -136 q 385 100 419 10 q 324 276 351 190 q 276 436 297 363 q 238 549 256 510 q 217 580 226 575 q 203 583 207 585 l 200 581 l 200 179 l 242 119 l 7 119 z "},"L":{"ha":458,"x_min":6,"x_max":747,"o":"m 240 972 q 213 947 224 961 q 199 913 201 933 l 199 183 q 230 183 211 185 q 273 171 249 181 q 327 141 297 161 q 390 86 357 121 q 560 -60 490 -15 q 676 -99 631 -106 q 714 -85 700 -96 q 735 -64 728 -75 q 747 -35 743 -50 q 724 -131 742 -87 q 677 -197 708 -167 q 592 -231 646 -228 q 496 -203 538 -233 q 419 -131 454 -174 q 353 -42 385 -89 q 286 35 321 4 q 217 82 251 65 q 156 107 183 99 q 112 117 129 115 q 93 118 94 118 l 6 118 l 49 179 l 49 913 q 6 972 40 951 l 240 972 z "},"M":{"ha":724,"x_min":6,"x_max":717,"o":"m 51 218 l 51 910 q 40 947 53 932 q 6 972 28 963 l 174 972 q 142 946 154 961 q 126 908 129 931 l 126 822 l 324 503 l 501 792 l 482 818 l 717 818 q 675 761 681 797 l 675 58 l 717 1 l 482 1 l 525 58 l 525 543 l 324 217 l 126 536 l 126 218 l 174 154 l 6 154 l 51 218 z "},"N":{"ha":678,"x_min":6,"x_max":674,"o":"m 51 218 l 51 910 q 6 972 50 956 l 228 972 l 551 171 l 551 756 q 536 794 549 779 q 506 818 524 808 l 674 818 q 642 790 654 804 q 626 756 629 775 l 626 64 l 674 1 l 471 1 l 126 850 l 126 218 l 174 154 l 6 154 l 51 218 z "},"O":{"ha":713,"x_min":7,"x_max":704,"o":"m 7 486 q 34 675 7 586 q 108 830 61 764 q 219 934 156 896 q 356 972 283 972 q 492 934 428 972 q 603 830 556 896 q 677 675 650 764 q 704 486 704 586 q 677 297 704 386 q 603 143 650 208 q 492 40 556 78 q 356 1 428 1 q 219 40 283 1 q 108 143 156 78 q 34 297 61 208 q 7 486 7 386 m 192 486 q 213 327 196 401 q 255 197 229 253 q 313 110 281 142 q 378 78 344 78 q 441 110 413 78 q 489 197 469 142 q 517 327 508 253 q 521 486 525 401 q 499 646 517 571 q 457 776 482 721 q 400 864 432 832 q 333 896 368 896 q 272 864 300 896 q 224 776 243 832 q 196 646 204 721 q 192 486 188 571 z "},"P":{"ha":733,"x_min":-10,"x_max":742,"o":"m 264 972 l 414 972 q 602 929 529 972 q 708 822 675 886 q 738 685 742 758 q 696 551 735 611 q 586 454 657 490 q 414 428 515 418 l 414 58 l 456 1 l 221 1 l 264 58 l 264 881 q 233 871 249 878 q 206 851 218 864 q 176 817 192 838 q 150 772 161 797 q 136 715 139 747 q 143 643 133 683 q 149 577 154 604 q 133 532 144 550 q 101 500 121 513 q 108 531 110 515 q 99 560 108 544 q 63 592 90 576 q 7 651 24 614 q -8 730 -10 688 q 15 815 -6 772 q 70 893 35 858 q 155 950 106 928 q 264 972 204 972 m 414 501 q 527 537 482 508 q 594 605 572 565 q 617 690 617 644 q 594 774 617 735 q 527 843 572 814 q 414 881 482 872 l 414 501 z "},"Q":{"ha":690,"x_min":7,"x_max":1043,"o":"m 7 497 q 30 664 7 586 q 93 799 53 742 q 187 890 133 857 q 300 924 240 924 q 415 890 361 924 q 508 799 468 857 q 572 664 549 742 q 594 497 594 586 q 561 299 594 389 q 471 150 528 208 l 461 86 q 558 76 511 90 q 648 37 604 61 q 732 -18 692 13 q 808 -74 772 -49 q 877 -118 844 -100 q 938 -136 910 -136 q 999 -106 974 -136 q 1028 -83 1014 -90 q 1042 -79 1035 -81 q 1033 -94 1036 -86 q 1032 -129 1026 -110 q 1038 -187 1043 -161 q 1017 -234 1033 -214 q 974 -265 1000 -254 q 918 -276 949 -276 q 853 -264 886 -276 q 789 -222 821 -251 q 734 -167 767 -201 q 664 -98 701 -133 q 585 -33 626 -62 q 501 10 543 -3 q 418 22 458 22 q 344 13 376 22 q 297 -1 313 4 q 353 42 328 14 q 393 92 378 69 q 300 71 350 71 q 187 104 240 71 q 93 195 133 138 q 30 331 53 253 q 7 497 7 408 m 163 497 q 181 357 167 422 q 216 243 194 292 q 264 166 238 194 q 319 138 290 138 q 372 166 349 138 q 412 243 396 194 q 435 357 428 292 q 439 497 443 422 q 421 638 435 572 q 385 751 407 703 q 338 828 364 800 q 282 857 311 857 q 229 828 253 857 q 190 751 206 800 q 166 638 174 703 q 163 497 158 572 z "},"R":{"ha":808,"x_min":-8,"x_max":1047,"o":"m 265 947 l 415 947 q 585 912 517 947 q 691 822 653 876 q 737 701 729 767 q 726 573 744 635 q 661 461 707 511 q 546 390 615 411 q 615 315 581 363 q 685 211 650 267 q 753 99 719 156 q 820 -4 788 42 q 883 -79 853 -50 q 943 -108 914 -108 q 989 -85 969 -108 q 1026 -58 1011 -62 q 1042 -56 1035 -56 q 1039 -69 1039 -61 q 1038 -89 1038 -76 q 1043 -119 1039 -101 q 1044 -160 1047 -137 q 1028 -204 1042 -183 q 990 -239 1015 -225 q 926 -253 965 -253 q 813 -217 861 -254 q 728 -122 765 -181 q 658 8 690 -64 q 594 150 626 79 q 524 281 561 221 q 436 378 486 342 q 426 379 431 379 q 415 381 421 379 l 415 154 l 457 94 l 222 94 l 265 154 l 265 851 q 235 842 250 849 q 207 821 219 835 q 178 785 193 806 q 151 739 163 765 q 138 679 140 713 q 144 604 135 646 q 151 535 156 564 q 135 489 146 507 q 103 456 122 468 q 110 486 111 471 q 101 518 110 501 q 64 550 92 535 q 8 613 25 574 q -6 695 -8 651 q 16 784 -4 739 q 72 865 36 829 q 156 924 107 901 q 265 947 206 947 m 415 851 l 415 457 q 528 494 483 464 q 596 565 574 524 q 618 652 618 606 q 596 740 618 699 q 528 813 574 782 q 415 851 483 843 z "},"S":{"ha":551,"x_min":4,"x_max":565,"o":"m 38 408 q 49 444 47 428 q 33 481 50 461 q 82 474 58 483 q 123 446 101 467 q 157 383 144 425 q 172 292 171 342 q 181 201 174 243 q 208 131 188 158 q 282 107 229 104 q 359 140 335 110 q 388 210 383 169 q 382 295 393 251 q 351 368 371 339 q 298 435 333 397 q 223 515 263 474 q 146 596 183 556 q 85 671 108 636 q 52 748 61 706 q 51 831 43 790 q 86 904 60 871 q 160 956 113 938 q 228 969 197 969 q 273 961 254 969 q 306 944 292 953 q 329 928 319 935 q 349 924 339 921 q 372 934 358 926 q 397 950 385 942 q 417 965 408 958 q 429 972 426 972 q 390 846 443 972 q 347 747 363 782 q 324 711 332 711 q 317 734 315 711 q 319 790 319 757 q 303 845 318 824 q 256 865 288 867 q 228 853 240 864 q 216 821 217 842 q 228 770 215 800 q 278 703 242 740 q 359 617 313 667 q 449 515 406 568 q 543 332 521 425 q 540 165 565 239 q 447 44 515 90 q 268 1 378 -3 q 135 42 193 4 q 45 140 78 81 q 8 269 13 199 q 38 408 4 340 z "},"T":{"ha":681,"x_min":-10,"x_max":689,"o":"m -10 972 l 689 972 l 689 732 q 672 804 681 771 q 654 858 664 832 q 633 892 644 883 q 588 903 618 903 q 525 894 558 903 q 467 869 492 885 q 438 842 449 857 q 423 813 428 828 q 417 785 418 799 q 415 764 415 772 l 415 56 l 457 1 l 222 1 l 265 56 l 265 764 q 251 826 265 800 q 213 869 236 853 q 158 894 189 886 q 94 903 126 903 q 47 892 60 903 q 26 858 36 883 q 8 804 15 832 q -10 732 -1 771 l -10 972 z "},"U":{"ha":613,"x_min":0,"x_max":611,"o":"m 0 972 l 235 972 q 208 950 219 963 q 193 918 197 938 l 193 301 q 226 208 193 249 q 310 154 260 167 q 326 152 318 153 q 343 151 335 151 q 361 152 353 151 q 378 154 369 153 q 461 208 428 167 q 494 301 494 249 l 494 783 q 454 836 489 815 l 611 836 q 569 782 576 819 l 569 264 q 549 162 569 210 q 492 78 528 114 q 409 22 457 43 q 306 1 361 1 q 203 22 251 1 q 120 78 156 43 q 64 162 85 114 q 43 264 43 210 l 43 918 q 0 972 38 946 z "},"V":{"ha":642,"x_min":-25,"x_max":657,"o":"m 1 971 l 197 971 q 170 953 179 964 q 165 928 161 943 l 401 151 l 540 811 q 519 842 540 828 l 657 842 q 629 815 642 831 q 608 775 617 800 l 446 6 l 449 0 l 299 0 l 21 910 q -25 972 8 947 l 1 971 z "},"W":{"ha":961,"x_min":-24,"x_max":982,"o":"m 200 972 q 165 926 168 958 l 324 313 l 410 714 l 397 761 q 356 818 388 797 l 579 818 q 544 772 549 801 l 703 158 l 872 935 q 844 972 872 963 l 982 972 q 944 921 956 956 l 743 1 l 593 1 l 450 560 l 450 553 l 364 156 l 364 154 l 214 154 l 19 915 q -1 951 10 938 q -24 972 -12 964 l 200 972 z "},"X":{"ha":546,"x_min":-17,"x_max":563,"o":"m 119 972 q 93 938 96 961 l 236 611 l 378 935 q 351 972 378 957 l 563 972 q 538 942 549 957 q 518 911 526 926 l 311 440 l 490 72 l 542 1 l 406 1 l 431 36 l 272 354 l 201 192 l 228 154 l 15 154 l 64 219 l 199 525 l 31 907 q 8 947 19 932 q -17 972 -4 963 l 119 972 z "},"Y":{"ha":506,"x_min":-26,"x_max":556,"o":"m 186 972 q 158 935 163 954 l 339 524 l 446 783 q 419 818 444 808 l 556 818 q 508 754 526 796 q 362 398 435 575 q 215 40 289 221 l 244 1 l 108 1 l 143 47 l 267 349 l 18 911 q -26 972 3 947 l 186 972 z "},"Z":{"ha":506,"x_min":-4,"x_max":824,"o":"m 354 875 l 161 875 q 105 853 128 875 q 67 806 82 832 q 39 735 50 774 l 39 972 l 549 972 l 165 124 q 324 89 251 117 q 461 22 397 61 q 582 -65 525 -18 q 692 -156 639 -111 q 717 -165 703 -165 q 738 -158 728 -165 q 754 -142 747 -151 q 765 -122 761 -132 q 768 -106 768 -112 q 782 -79 765 -90 q 818 -67 799 -68 q 807 -81 811 -71 q 804 -101 804 -87 q 813 -135 804 -115 q 818 -190 824 -158 q 790 -246 813 -221 q 710 -281 757 -281 q 605 -251 661 -281 q 493 -181 549 -221 q 389 -101 438 -142 q 308 -39 340 -60 q 149 47 229 11 q -4 82 69 82 l 354 875 z "},"a":{"ha":501,"x_min":-12,"x_max":539,"o":"m -12 0 q 7 25 -1 11 q 21 57 15 39 l 249 753 l 268 753 l 510 0 q 539 -50 521 -29 l 414 -50 q 436 -12 429 -36 l 379 169 l 250 204 l 194 38 q 217 0 199 14 l -12 0 m 264 247 l 363 219 l 310 388 l 264 247 z "},"b":{"ha":476,"x_min":11,"x_max":483,"o":"m 11 0 q 44 58 36 24 l 44 694 q 11 753 40 728 l 194 753 q 226 752 207 753 q 267 745 244 751 q 311 724 289 739 q 353 682 333 710 q 370 570 389 629 q 301 453 351 511 q 413 417 369 451 q 469 332 456 382 q 465 224 483 282 q 391 115 446 165 q 242 33 336 65 q 11 0 149 0 m 350 206 q 369 272 369 242 q 354 324 368 301 q 315 358 340 346 q 261 369 290 369 q 196 354 226 369 l 194 67 q 226 81 207 71 q 267 106 246 90 q 310 147 289 122 q 350 206 332 171 m 194 426 q 228 469 210 440 q 258 546 247 497 q 260 600 265 576 q 244 642 256 624 q 219 674 233 661 q 194 693 206 686 l 194 426 z "},"c":{"ha":407,"x_min":14,"x_max":404,"o":"m 69 642 q 143 722 97 692 q 238 753 189 753 q 297 740 268 753 q 349 696 325 726 l 404 753 l 338 536 q 324 599 333 571 q 301 644 315 622 q 264 672 288 667 q 227 654 243 678 q 200 588 211 631 q 184 490 189 546 q 179 376 179 435 q 184 263 179 318 q 200 165 189 207 q 227 98 211 122 q 264 79 243 74 q 301 108 288 86 q 324 153 315 129 q 338 215 333 181 l 404 0 l 349 57 q 297 13 325 26 q 236 -1 268 -1 q 142 29 188 -1 q 69 111 97 60 q 28 233 42 163 q 14 376 14 303 q 28 520 14 450 q 69 642 42 590 z "},"d":{"ha":478,"x_min":10,"x_max":486,"o":"m 193 753 q 381 706 314 753 q 467 585 447 658 q 462 422 486 511 q 378 250 438 333 q 225 99 318 167 q 14 0 132 31 q 28 27 21 14 q 43 53 36 40 l 43 694 q 10 753 39 731 l 193 753 m 193 675 l 193 158 q 238 213 217 182 q 275 283 258 244 q 310 410 304 350 q 302 519 315 469 q 260 609 289 569 q 193 675 232 649 z "},"e":{"ha":457,"x_min":11,"x_max":447,"o":"m 44 58 l 44 694 l 11 753 l 447 753 q 436 669 444 711 q 418 591 429 633 q 388 511 407 549 q 382 567 386 539 q 374 617 379 590 q 361 663 369 643 l 194 663 l 194 414 l 271 414 l 304 472 l 304 281 l 271 339 l 194 339 l 194 90 l 361 90 q 374 137 369 111 q 382 186 379 163 q 388 242 386 214 q 418 163 407 206 q 436 83 429 119 q 447 0 444 42 l 11 0 l 44 58 z "},"f":{"ha":440,"x_min":11,"x_max":447,"o":"m 44 58 l 44 694 l 11 753 l 447 753 q 436 669 444 711 q 418 591 429 633 q 388 511 407 549 q 382 567 386 539 q 374 617 379 590 q 361 663 369 643 l 194 663 l 194 414 l 271 414 l 304 472 l 304 281 l 271 339 l 194 339 l 194 58 l 229 0 l 11 0 l 44 58 z "},"g":{"ha":483,"x_min":6,"x_max":474,"o":"m 408 690 l 474 753 l 410 519 q 393 565 404 536 q 367 621 382 593 q 334 669 353 649 q 293 689 315 689 q 264 679 278 689 q 228 640 247 668 q 195 567 210 611 q 173 463 181 522 q 171 333 165 404 q 190 215 176 263 q 219 138 203 167 q 251 94 235 108 q 278 76 267 81 q 296 75 288 72 l 296 319 l 261 378 l 446 378 l 446 0 l 433 0 l 411 47 q 353 16 390 32 q 263 0 315 0 q 177 25 219 0 q 99 99 135 50 q 40 217 64 147 q 11 376 15 288 q 31 546 6 475 q 97 663 56 617 q 190 731 139 708 q 288 753 242 753 q 360 738 328 753 q 408 690 393 722 z "},"h":{"ha":519,"x_min":8,"x_max":508,"o":"m 8 -50 l 42 8 l 42 694 q 31 726 39 711 q 8 753 24 742 l 226 753 q 192 694 200 729 l 192 344 l 385 294 l 385 619 l 350 647 l 508 647 l 474 619 l 474 31 l 508 0 l 350 0 l 385 31 l 385 249 l 192 297 l 192 8 l 226 -50 l 8 -50 z "},"i":{"ha":238,"x_min":10,"x_max":228,"o":"m 43 60 l 43 694 q 10 753 39 735 l 228 753 q 193 694 197 736 l 193 60 l 228 0 l 10 0 l 43 60 z "},"j":{"ha":400,"x_min":-12,"x_max":394,"o":"m 78 228 q 85 210 85 222 q 83 186 85 199 q 78 163 81 174 q 74 149 75 153 q 90 138 81 143 q 107 130 97 133 q 128 126 117 126 q 150 131 139 126 q 172 149 161 136 q 198 208 189 168 q 211 299 207 247 q 216 408 215 350 q 215 521 217 467 q 213 621 214 575 q 211 694 211 667 q 176 753 204 735 l 394 753 q 361 694 361 731 q 365 587 361 653 q 367 445 368 521 q 360 292 367 369 q 334 152 354 215 q 278 48 314 89 q 185 3 243 7 q 118 20 157 0 q 44 71 79 40 q 26 42 36 54 q 8 22 18 31 q -12 17 -1 14 l 78 228 z "},"k":{"ha":500,"x_min":11,"x_max":532,"o":"m 11 0 l 44 58 l 44 694 q 11 753 44 739 l 229 753 q 194 694 203 732 l 194 417 q 276 478 242 438 q 333 563 310 518 q 370 651 357 607 q 388 721 383 694 l 369 753 l 476 753 q 456 727 463 740 q 447 701 450 714 q 422 608 439 656 q 381 515 406 560 q 322 433 356 471 q 247 372 289 396 q 347 314 301 354 q 425 222 392 274 q 478 111 458 169 q 503 0 499 53 q 532 -50 507 -29 l 329 -50 q 351 -25 344 -39 q 361 4 358 -11 q 347 92 361 44 q 308 186 332 140 q 255 269 285 232 q 194 326 225 307 l 194 58 l 229 0 l 11 0 z "},"l":{"ha":475,"x_min":8,"x_max":482,"o":"m 8 753 l 226 753 q 192 694 193 733 l 192 89 l 396 89 q 409 136 404 110 q 417 186 414 163 q 421 242 419 214 q 452 163 440 206 q 471 83 464 119 q 482 0 478 42 l 42 0 l 42 694 q 8 753 42 732 z "},"m":{"ha":608,"x_min":11,"x_max":597,"o":"m 11 753 l 194 753 l 313 435 l 488 753 l 597 753 l 564 694 l 564 8 l 597 -50 l 456 -50 l 489 8 l 489 443 l 335 163 l 194 538 l 194 58 l 229 0 l 11 0 l 44 58 l 44 694 l 11 753 z "},"n":{"ha":622,"x_min":10,"x_max":611,"o":"m 193 753 l 428 192 l 428 694 q 393 753 424 739 l 611 753 q 578 694 581 733 l 578 58 l 611 0 l 426 0 l 193 558 l 193 8 l 228 -50 l 10 -50 l 43 8 l 43 694 l 10 753 l 193 753 z "},"o":{"ha":478,"x_min":11,"x_max":489,"o":"m 11 376 q 30 523 11 454 q 81 643 49 592 q 157 724 114 694 q 250 753 200 753 q 343 724 300 753 q 419 643 386 694 q 470 523 451 592 q 489 376 489 454 q 470 230 489 299 q 419 110 451 161 q 343 30 386 60 q 250 0 300 0 q 157 30 200 0 q 81 110 114 60 q 30 230 49 161 q 11 376 11 299 m 250 47 q 288 73 269 47 q 319 144 306 99 q 340 249 332 189 q 347 376 347 308 q 340 504 347 444 q 319 609 332 564 q 288 680 306 654 q 250 706 269 706 q 212 680 229 706 q 182 609 194 654 q 162 504 169 564 q 154 376 154 444 q 162 249 154 308 q 182 144 169 189 q 212 73 194 99 q 250 47 229 47 z "},"p":{"ha":467,"x_min":11,"x_max":479,"o":"m 44 58 l 44 694 q 34 726 42 711 q 11 753 26 742 l 194 753 q 374 726 311 753 q 458 659 436 700 q 465 567 479 618 q 412 465 450 515 q 316 371 374 414 q 194 301 258 328 l 194 58 l 229 0 l 11 0 l 44 58 m 194 676 l 194 385 q 267 432 235 403 q 318 495 299 461 q 342 563 338 529 q 333 622 347 596 q 286 664 319 649 q 194 676 253 679 z "},"q":{"ha":501,"x_min":8,"x_max":522,"o":"m 247 753 q 365 713 315 753 q 444 608 414 672 q 484 464 474 543 q 484 306 494 385 q 442 156 474 226 q 356 42 410 86 q 366 3 356 24 q 393 -33 376 -17 q 428 -61 410 -50 q 464 -72 447 -72 q 475 -68 471 -72 q 503 -51 488 -54 q 518 -50 511 -50 q 516 -67 514 -54 q 520 -97 518 -79 q 521 -133 522 -114 q 509 -167 519 -151 q 476 -192 499 -182 q 413 -200 453 -201 q 376 -183 394 -200 q 342 -139 357 -167 q 315 -73 326 -111 q 299 10 304 -35 q 294 5 293 7 q 295 2 296 3 q 285 1 294 1 q 247 0 275 0 q 161 33 201 0 q 90 118 121 65 q 40 238 60 171 q 14 376 19 306 q 17 515 8 447 q 54 635 26 582 q 129 720 82 688 q 247 753 176 753 m 247 50 q 298 99 276 50 q 331 219 319 147 q 344 376 343 292 q 336 533 346 461 q 305 654 326 606 q 247 703 283 703 q 190 654 211 703 q 158 533 168 606 q 150 376 149 461 q 163 219 151 292 q 197 99 175 147 q 247 50 218 50 z "},"r":{"ha":526,"x_min":11,"x_max":557,"o":"m 11 0 l 44 58 l 44 694 q 34 726 42 711 q 11 753 26 742 l 194 753 q 423 713 353 753 q 493 613 493 674 q 434 481 493 553 q 276 346 375 410 q 374 283 336 325 q 441 188 413 240 q 492 81 469 136 q 540 -21 514 25 l 557 -50 l 363 -50 q 390 0 388 -36 q 370 84 385 36 q 333 178 356 132 q 280 260 310 224 q 215 311 250 297 q 205 306 210 308 q 194 301 200 304 l 194 58 l 229 0 l 11 0 m 194 385 q 310 481 268 428 q 355 578 351 533 q 320 652 358 624 q 194 676 282 681 l 194 385 z "},"s":{"ha":467,"x_min":-7,"x_max":465,"o":"m -7 14 q 40 136 19 82 q 59 181 50 160 q 75 221 68 203 q 87 249 82 239 q 93 260 92 260 q 99 259 96 260 q 105 254 103 258 q 108 242 107 250 q 108 218 108 233 q 106 183 107 203 q 109 146 104 164 q 128 114 114 128 q 171 93 142 100 q 225 94 200 88 q 269 115 250 100 q 299 151 288 131 q 314 193 311 172 q 303 244 317 215 q 265 309 290 272 q 202 392 239 346 q 122 497 165 439 q 74 603 79 556 q 86 684 68 650 q 140 737 104 718 q 217 757 176 756 q 282 741 257 758 q 322 703 307 724 q 349 647 340 679 l 407 667 q 382 633 394 650 q 358 604 371 619 q 332 575 344 589 q 299 550 310 553 q 290 551 293 549 q 294 561 292 556 q 297 574 296 567 q 301 592 299 581 q 303 633 306 613 q 285 663 300 654 q 260 668 278 668 q 231 660 244 668 q 213 629 217 651 q 224 585 210 613 q 260 528 238 558 q 310 465 282 497 q 361 404 338 432 q 408 341 385 376 q 445 267 431 306 q 463 190 460 229 q 446 114 465 150 q 399 56 428 78 q 340 23 371 35 q 280 8 310 11 q 226 4 250 4 q 185 8 204 4 q 151 17 167 11 q 119 27 135 22 q 89 36 104 32 q 60 35 74 39 q 36 24 47 31 q 17 10 25 17 q 6 4 10 4 q -6 10 0 4 q -7 14 -7 11 z "},"t":{"ha":601,"x_min":-11,"x_max":611,"o":"m -11 524 l 88 757 l 514 757 l 611 524 q 597 524 607 519 q 575 542 589 528 q 538 586 561 556 q 465 663 504 631 q 375 708 425 694 l 375 63 l 410 4 l 192 4 l 225 63 l 225 708 q 136 663 175 694 q 63 586 97 631 q 26 542 40 556 q 3 524 11 528 q -11 524 -7 519 z "},"u":{"ha":479,"x_min":7,"x_max":475,"o":"m 150 757 l 115 729 l 115 242 q 141 180 115 206 q 203 154 167 154 q 265 180 239 154 q 290 242 290 206 q 291 288 290 265 q 290 333 292 310 l 290 611 q 281 647 290 633 q 257 669 272 661 l 475 669 q 440 611 443 653 l 440 204 q 424 126 440 163 q 381 63 408 90 q 318 20 354 36 q 240 4 282 4 q 163 20 199 4 q 99 63 126 36 q 56 126 72 90 q 40 204 40 163 l 40 729 l 7 757 l 150 757 z "},"v":{"ha":592,"x_min":-10,"x_max":604,"o":"m -10 669 l 93 669 l 83 654 l 242 126 l 431 729 l 414 757 l 604 757 q 571 699 583 736 l 354 4 l 204 4 l 19 618 l -10 669 z "},"w":{"ha":797,"x_min":-10,"x_max":806,"o":"m 93 758 l 83 742 l 208 146 l 313 485 l 283 590 l 257 635 l 360 635 l 350 618 l 486 132 l 629 607 l 628 607 q 611 636 626 624 l 806 636 l 778 588 l 603 6 l 521 6 l 522 4 l 447 4 l 383 229 l 314 6 l 163 6 l 13 721 l -10 758 l 93 758 z "},"x":{"ha":421,"x_min":-10,"x_max":426,"o":"m 17 51 l 157 447 l 54 713 l 28 758 l 131 758 l 119 739 l 192 549 l 253 721 l 232 758 l 265 758 l 265 756 l 267 758 l 426 758 l 400 714 l 271 346 l 383 51 l 410 6 l 308 6 l 319 25 l 235 244 l 164 43 l 185 6 l 151 6 l 151 8 l 150 6 l -10 6 l 17 51 z "},"y":{"ha":419,"x_min":-12,"x_max":431,"o":"m 90 758 l 81 742 l 168 492 l 260 696 l 240 729 l 431 729 l 401 679 l 272 390 l 272 64 l 306 6 l 88 6 l 122 64 l 122 388 l 121 388 l 122 390 l 122 408 l 17 708 l -12 758 l 90 758 z "},"z":{"ha":507,"x_min":-3,"x_max":508,"o":"m -3 758 l 479 758 l 222 96 l 422 96 q 435 143 431 117 q 443 193 440 169 q 447 249 446 221 q 478 169 467 211 q 497 90 490 126 q 508 6 504 47 l 38 6 l 294 669 l 83 669 q 71 623 76 650 q 63 572 65 596 q 58 517 60 544 q 28 597 39 554 q 10 675 17 639 q -3 758 1 717 z "}," ":{"ha":426,"x_min":0,"x_max":0,"o":""},"­":{"ha":0,"x_min":0,"x_max":0,"o":""},"":{"ha":907,"x_min":13,"x_max":904,"o":"m 626 922 l 600 971 l 800 971 l 888 29 l 888 28 l 904 -1 l 714 -1 l 736 39 l 701 396 q 588 469 643 442 q 500 507 532 496 l 364 226 l 375 208 l 281 208 l 626 922 m 81 857 q 182 954 119 926 q 300 971 244 982 q 347 951 328 965 q 383 926 367 938 q 413 907 399 914 q 442 907 426 900 q 481 935 465 918 q 510 953 496 953 q 525 944 517 953 l 406 646 q 397 644 401 644 q 386 657 388 647 q 386 677 385 664 q 386 708 388 690 q 380 749 385 726 q 361 797 375 772 q 326 840 346 825 q 283 856 306 856 q 245 842 264 856 q 211 797 226 828 q 178 692 190 756 q 165 556 167 628 q 172 413 164 485 q 196 283 179 340 q 238 189 213 225 q 294 153 263 153 q 326 166 303 153 q 375 203 350 179 q 419 263 400 228 q 440 340 439 297 q 456 333 449 340 q 464 313 461 326 q 463 272 467 300 q 440 199 458 246 q 395 108 422 153 q 334 31 368 64 q 264 -3 300 -3 q 156 44 203 -3 q 78 165 110 90 q 29 334 46 240 q 13 524 13 428 q 29 707 13 619 q 81 857 46 794 m 694 454 l 663 842 l 536 576 q 603 531 571 553 q 656 490 629 511 q 694 454 682 469 z "},"":{"ha":828,"x_min":13,"x_max":815,"o":"m 81 857 q 182 954 119 926 q 300 971 244 982 q 347 951 328 965 q 383 926 367 938 q 413 907 399 914 q 442 907 426 900 q 481 935 465 918 q 510 953 496 953 q 525 944 517 953 l 406 646 q 397 644 401 644 q 386 657 388 647 q 386 677 385 664 q 386 708 388 690 q 380 749 385 726 q 361 797 375 772 q 326 840 346 825 q 283 856 306 856 q 245 842 264 856 q 211 797 226 828 q 178 692 190 756 q 165 556 167 628 q 172 413 164 485 q 196 283 179 340 q 238 189 213 225 q 294 153 263 153 q 326 166 303 153 q 375 203 350 179 q 419 263 400 228 q 440 340 439 297 q 456 333 449 340 q 464 313 461 326 q 463 272 467 300 q 440 199 458 246 q 395 108 422 153 q 334 31 368 64 q 264 -3 300 -3 q 156 44 203 -3 q 78 165 110 90 q 29 334 46 240 q 13 524 13 428 q 29 707 13 619 q 81 857 46 794 m 244 240 l 279 278 l 279 607 l 244 640 l 388 640 l 354 607 l 354 414 q 437 464 396 444 q 515 495 478 483 q 581 513 551 507 q 631 519 611 518 l 631 703 l 597 763 l 815 763 l 781 703 l 781 57 l 815 -1 l 597 -1 l 631 57 l 631 400 q 540 403 583 406 q 462 396 497 401 q 399 383 426 390 q 354 369 371 375 l 354 278 l 388 240 l 244 240 z "},"":{"ha":1069,"x_min":15,"x_max":1042,"o":"m 758 806 q 884 789 831 806 q 972 732 938 772 q 1024 625 1007 692 q 1042 457 1042 558 q 1023 265 1042 356 q 967 107 1004 175 q 876 -1 931 39 q 749 -40 821 -40 q 621 -2 676 -40 q 528 102 565 36 q 471 256 490 168 q 451 446 451 344 q 472 616 451 547 q 533 727 493 685 q 629 788 572 769 q 758 806 686 806 m 81 857 q 182 954 119 926 q 300 971 244 982 q 347 951 328 965 q 383 926 367 938 q 413 907 399 914 q 442 907 426 900 q 481 935 465 918 q 510 953 496 953 q 525 944 517 953 l 406 646 q 397 644 401 644 q 386 657 388 647 q 386 677 385 664 q 386 709 388 690 q 380 751 385 728 q 361 799 375 774 q 326 840 346 825 q 285 856 306 856 q 211 797 242 856 q 180 678 190 756 q 170 507 169 600 q 181 318 171 414 q 208 143 190 222 q 253 14 226 64 q 311 -36 279 -36 q 343 -23 319 -36 q 392 15 367 -10 q 436 74 417 39 q 457 151 456 108 q 451 208 450 189 q 458 220 453 226 q 470 181 464 214 q 479 83 476 149 q 472 38 481 65 q 450 -19 464 11 q 417 -81 436 -50 q 376 -137 399 -112 q 329 -176 354 -161 q 281 -192 304 -192 q 172 -131 219 -192 q 90 25 124 -71 q 37 240 56 121 q 17 475 18 358 q 31 693 15 592 q 81 857 46 794 m 583 449 q 605 289 588 364 q 647 158 622 214 q 704 69 672 101 q 771 38 736 38 q 833 69 804 38 q 881 158 861 101 q 909 289 900 214 q 914 449 918 364 q 895 583 910 535 q 858 655 881 631 q 806 685 835 679 q 742 690 776 690 q 676 685 707 690 q 624 655 646 679 q 590 583 601 631 q 583 449 579 535 z "},"":{"ha":1068,"x_min":-11,"x_max":1061,"o":"m -3 674 q 21 638 4 653 q 62 615 36 624 q 131 613 88 606 q 174 617 150 615 q 226 618 199 619 l 226 921 q 216 953 225 939 q 185 978 207 968 l 419 978 q 376 921 381 960 l 376 607 q 499 575 442 596 q 594 518 557 554 l 594 921 q 551 978 588 957 l 786 978 q 743 921 747 954 l 743 214 l 786 156 l 551 156 l 594 214 l 594 443 q 540 490 576 468 q 435 510 503 513 q 406 508 419 510 q 376 504 392 507 l 376 60 l 419 1 l 185 1 l 226 60 l 226 474 q 165 461 194 467 q 108 456 135 456 q 47 471 71 456 q 7 517 19 488 q -8 576 -6 546 q -8 634 -11 607 q -3 674 -6 661 m 1061 818 q 1018 760 1019 799 l 1018 54 l 1061 -4 l 825 -4 l 868 54 l 868 760 q 825 818 867 799 l 1061 818 z "},"":{"ha":889,"x_min":4,"x_max":907,"o":"m 47 83 l 47 958 q 4 1031 39 1006 l 239 1031 q 211 1002 222 1019 q 197 958 200 985 l 197 90 q 228 89 210 92 q 272 74 247 86 q 326 37 296 61 q 389 -29 356 13 q 559 -203 489 -150 q 675 -249 629 -256 q 713 -233 699 -246 q 735 -207 726 -221 q 747 -172 743 -192 q 722 -287 742 -236 q 676 -367 707 -331 q 590 -406 644 -403 q 524 -391 554 -407 q 467 -348 493 -375 q 418 -287 442 -321 q 373 -217 394 -253 q 330 -147 351 -181 q 285 -89 308 -114 q 216 -31 250 -51 q 155 -1 182 -11 q 110 10 128 8 q 92 13 93 13 l 4 13 l 47 83 m 336 146 l 564 1014 l 583 1014 l 663 703 l 878 -117 q 907 -181 888 -153 l 782 -181 q 804 -133 799 -160 l 693 286 l 564 328 l 510 121 q 518 94 513 106 q 532 74 524 83 l 303 74 q 322 106 314 89 q 336 146 329 124 m 678 350 l 625 558 l 578 382 l 678 350 z "},"":{"ha":822,"x_min":18,"x_max":811,"o":"m 18 1031 l 253 1031 q 225 1002 236 1019 q 211 958 214 985 l 211 88 q 242 86 224 89 q 285 71 261 83 q 340 34 310 58 q 403 -32 369 10 q 573 -206 503 -153 q 689 -253 643 -260 q 726 -237 713 -250 q 749 -211 740 -225 q 761 -176 757 -196 q 736 -292 756 -240 q 690 -371 721 -335 q 604 -410 658 -407 q 508 -377 550 -412 q 432 -291 467 -342 q 365 -185 397 -240 q 299 -93 333 -131 q 230 -35 264 -56 q 169 -6 196 -15 q 124 6 142 4 q 106 8 107 8 l 18 8 l 61 81 l 61 958 q 18 1031 53 1006 m 346 126 l 346 864 l 313 900 l 469 900 l 436 864 l 436 458 l 628 519 l 628 690 q 594 764 621 735 l 811 764 q 778 690 785 738 l 778 99 l 811 26 l 594 26 l 628 99 l 628 461 l 436 400 l 436 126 l 469 89 l 313 89 l 346 126 z "},"":{"ha":694,"x_min":15,"x_max":758,"o":"m 15 -1 l 58 71 l 58 958 q 15 1031 50 1007 l 250 1031 q 222 1002 233 1019 q 208 958 211 985 l 208 78 q 240 76 221 79 q 283 61 258 74 q 337 24 307 49 q 400 -43 367 -1 q 570 -219 500 -165 q 686 -265 640 -274 q 724 -250 710 -262 q 746 -224 738 -237 q 758 -189 754 -208 q 733 -306 753 -254 q 687 -386 718 -350 q 601 -425 656 -422 q 535 -410 565 -426 q 478 -367 504 -394 q 429 -304 453 -339 q 384 -233 406 -269 q 341 -163 363 -197 q 296 -104 319 -129 q 227 -46 261 -67 q 166 -15 193 -25 q 122 -3 139 -6 q 103 -1 104 -1 l 15 -1 m 399 -1 l 440 71 l 440 690 q 399 763 438 740 l 633 763 q 590 690 592 740 l 590 71 l 633 -1 l 399 -1 z "},"":{"ha":761,"x_min":11,"x_max":775,"o":"m 54 89 l 54 956 q 11 1026 46 1001 l 246 1026 q 218 998 229 1015 q 204 956 207 981 l 204 96 q 235 94 217 97 q 278 79 254 92 q 333 43 303 67 q 396 -22 363 19 q 566 -194 496 -142 q 682 -240 636 -247 q 719 -225 706 -237 q 740 -199 733 -212 q 753 -164 749 -183 q 729 -278 747 -228 q 683 -357 714 -321 q 597 -394 651 -393 q 501 -362 543 -397 q 425 -278 460 -328 q 358 -174 390 -228 q 292 -82 326 -119 q 223 -25 257 -44 q 162 4 189 -6 q 117 16 135 14 q 99 18 100 18 l 11 18 l 54 89 m 264 760 l 482 760 l 447 688 l 447 157 q 508 135 482 151 q 556 101 535 119 q 597 69 578 83 q 635 56 615 56 q 667 67 650 56 q 706 104 685 78 q 735 133 722 124 q 757 146 747 143 q 775 147 767 149 q 764 122 767 139 q 761 81 761 106 q 761 27 761 57 q 756 -37 761 -3 q 726 -94 750 -74 q 668 -115 703 -115 q 602 -99 638 -115 q 528 -47 567 -83 q 445 20 486 -7 q 371 64 404 47 q 297 94 332 83 l 297 688 l 264 760 z "},"":{"ha":858,"x_min":7,"x_max":832,"o":"m 558 807 q 669 788 619 807 q 756 726 719 769 q 812 611 792 682 q 832 436 832 540 q 813 251 832 332 q 759 115 794 171 q 674 31 724 60 q 564 1 625 1 q 453 30 504 1 q 367 113 403 58 q 310 248 331 168 q 290 432 290 328 q 310 608 290 536 q 364 724 329 679 q 449 788 399 768 q 558 807 499 807 m 7 1018 l 242 1018 q 214 990 225 1007 q 200 947 203 972 l 200 90 q 231 89 213 92 q 274 74 250 86 q 328 39 299 63 q 392 -26 358 15 q 562 -198 492 -146 q 678 -243 632 -250 q 715 -228 701 -240 q 738 -203 729 -217 q 750 -168 746 -187 q 725 -282 744 -231 q 678 -360 710 -325 q 593 -399 647 -396 q 526 -384 557 -400 q 470 -342 496 -368 q 421 -281 444 -315 q 376 -212 397 -247 q 333 -144 354 -176 q 288 -86 311 -111 q 219 -29 253 -49 q 158 0 185 -10 q 113 12 131 10 q 94 14 96 14 l 7 14 l 50 85 l 50 947 q 7 1018 42 993 m 424 433 q 439 286 428 346 q 469 189 450 226 q 512 135 488 151 q 565 119 536 119 q 620 135 594 119 q 665 189 646 151 q 695 286 685 226 q 701 433 706 346 q 685 577 697 521 q 655 665 674 633 q 613 708 636 696 q 560 719 589 719 q 504 708 531 719 q 458 665 478 696 q 429 577 439 633 q 424 433 419 521 z "},"":{"ha":1079,"x_min":-10,"x_max":1068,"o":"m 457 413 q 480 573 457 499 q 543 703 503 647 q 637 792 583 760 q 751 824 690 824 q 866 792 813 824 q 959 703 919 760 q 1022 573 999 647 q 1044 413 1044 499 q 1022 253 1044 328 q 959 122 999 178 q 866 34 919 67 q 751 1 813 1 q 637 34 690 1 q 543 122 583 67 q 480 253 503 178 q 457 413 457 328 m -10 978 l 1068 978 l 1068 738 q 1050 810 1060 776 q 1032 863 1042 838 q 1011 897 1022 889 q 962 906 1004 904 q 860 908 919 908 q 740 906 804 908 q 619 900 676 904 q 521 890 563 896 q 467 875 479 883 q 438 848 449 863 q 423 819 428 833 q 417 790 418 804 q 415 768 415 776 l 415 57 l 457 1 l 222 1 l 265 57 l 265 768 q 251 831 265 804 q 213 874 236 857 q 158 900 189 892 q 94 908 128 908 q 47 897 60 908 q 26 863 36 889 q 8 810 15 838 q -10 738 -1 776 l -10 978 m 613 413 q 631 278 617 342 q 666 168 644 215 q 714 94 688 121 q 769 67 740 67 q 822 94 799 67 q 863 168 846 121 q 887 278 879 215 q 890 413 894 342 q 872 548 886 485 q 836 658 857 611 q 789 731 815 704 q 733 758 763 758 q 681 731 704 758 q 640 658 657 704 q 616 548 624 611 q 613 413 608 485 z "},"":{"ha":1239,"x_min":11,"x_max":1228,"o":"m 360 758 q 504 725 438 758 q 619 633 571 692 q 734 725 668 692 q 879 758 800 758 q 1015 728 951 758 q 1125 647 1078 699 q 1200 526 1172 596 q 1228 378 1228 457 q 1200 230 1228 299 q 1125 109 1172 161 q 1015 27 1078 57 q 879 -3 951 -3 q 734 31 800 -3 q 619 124 668 65 q 504 31 571 65 q 360 -3 438 -3 q 224 27 288 -3 q 113 109 160 57 q 38 230 65 161 q 11 378 11 299 q 38 526 11 457 q 113 647 65 596 q 224 728 160 699 q 360 758 288 758 m 196 378 q 217 253 200 311 q 259 152 233 196 q 317 83 285 108 q 382 58 349 58 q 445 83 417 58 q 493 152 474 108 q 521 253 513 196 q 525 378 529 311 q 503 503 521 444 q 461 605 486 561 q 404 674 436 649 q 338 699 372 699 q 276 674 304 699 q 228 605 247 649 q 200 503 208 561 q 196 378 192 444 m 714 378 q 735 253 718 311 q 778 152 753 196 q 835 83 803 108 q 900 58 867 58 q 963 83 935 58 q 1011 152 992 108 q 1039 253 1031 196 q 1043 378 1047 311 q 1022 503 1039 444 q 979 605 1004 561 q 922 674 954 649 q 857 699 890 699 q 794 674 822 699 q 746 605 765 649 q 718 503 726 561 q 714 378 710 444 z "},"":{"ha":968,"x_min":-18,"x_max":982,"o":"m -18 978 l 982 978 l 982 738 q 964 810 974 776 q 946 863 956 838 q 925 897 936 889 q 881 906 918 904 q 794 908 844 908 q 693 906 747 908 q 591 900 639 904 q 507 890 543 896 q 458 875 471 883 q 430 848 440 863 q 415 819 419 833 q 408 790 410 804 q 407 768 407 776 l 407 758 l 819 758 l 918 524 q 904 525 914 519 q 882 543 896 529 q 844 588 868 557 q 772 664 811 632 q 682 710 732 696 l 682 61 l 715 1 l 499 1 l 532 61 l 532 710 q 465 680 496 700 q 407 632 435 660 l 407 57 l 449 1 l 214 1 l 257 57 l 257 768 q 242 831 257 804 q 204 874 228 857 q 150 900 181 892 q 86 908 119 908 q 39 897 51 908 q 17 863 28 889 q 0 810 7 838 q -18 738 -10 776 l -18 978 z "},".":{"ha":172,"x_min":11,"x_max":161,"o":"m 11 68 q 33 122 11 100 q 86 143 54 143 q 140 122 118 143 q 161 68 161 100 q 140 15 161 38 q 86 -7 118 -7 q 33 15 54 -7 q 11 68 11 38 z "},",":{"ha":153,"x_min":-25,"x_max":146,"o":"m 146 61 l -25 -124 l 24 61 l 146 61 z "},"-":{"ha":478,"x_min":14,"x_max":464,"o":"m 14 211 l 14 361 l 464 361 l 464 211 l 14 211 z "},"+":{"ha":475,"x_min":13,"x_max":463,"o":"m 13 361 l 163 361 l 163 511 l 313 511 l 313 361 l 463 361 l 463 211 l 313 211 l 313 61 l 163 61 l 163 211 l 13 211 l 13 361 z "},"*":{"ha":499,"x_min":13,"x_max":486,"o":"m 464 721 l 360 611 l 249 718 l 138 611 l 35 721 l 114 796 l 13 839 l 71 978 l 174 933 l 174 1038 l 324 1038 l 324 933 l 428 978 l 454 913 l 486 839 l 383 796 l 464 721 z "},"^":{"ha":522,"x_min":7,"x_max":451,"o":"m 154 1039 l 238 1039 l 451 617 l 296 617 l 156 890 l 56 617 l 7 617 l 154 1039 z "},"˜":{"ha":333,"x_min":10,"x_max":325,"o":"m 10 921 q 35 940 19 932 q 65 953 46 947 q 108 956 83 958 q 158 949 136 953 q 199 946 179 946 q 231 950 217 946 q 257 967 244 954 l 325 881 q 297 850 313 863 q 266 831 285 839 q 224 826 247 822 q 175 836 197 831 q 132 842 153 842 q 102 837 117 842 q 72 819 88 832 q 42 863 54 843 q 19 897 29 881 q 10 921 10 914 z "},"/":{"ha":615,"x_min":69,"x_max":546,"o":"m 97 54 l 372 938 l 353 976 l 546 976 l 514 913 l 243 38 l 263 -3 l 69 -3 l 97 54 z "},"\\":{"ha":615,"x_min":69,"x_max":546,"o":"m 263 976 l 243 938 l 517 54 l 529 32 l 546 -3 l 353 -3 l 372 38 l 101 913 l 69 976 l 263 976 z "},":":{"ha":183,"x_min":17,"x_max":167,"o":"m 92 467 q 145 445 124 467 q 167 392 167 424 q 145 338 167 360 q 92 317 124 317 q 38 338 60 317 q 17 392 17 360 q 38 445 17 424 q 92 467 60 467 m 17 121 q 38 174 17 153 q 92 196 60 196 q 145 174 124 196 q 167 121 167 153 q 145 67 167 89 q 92 46 124 46 q 38 67 60 46 q 17 121 17 89 z "},";":{"ha":197,"x_min":15,"x_max":186,"o":"m 26 392 q 48 445 26 424 q 101 467 69 467 q 154 445 132 467 q 176 392 176 424 q 154 338 176 360 q 101 317 132 317 q 48 338 69 317 q 26 392 26 360 m 64 196 l 186 196 l 15 11 l 64 196 z "},"<":{"ha":583,"x_min":69,"x_max":565,"o":"m 565 467 l 565 418 l 292 319 l 565 179 l 565 22 l 69 279 l 565 467 z "},"=":{"ha":489,"x_min":19,"x_max":469,"o":"m 19 278 l 19 428 l 469 428 l 469 278 l 19 278 m 469 211 l 469 61 l 19 61 l 19 211 l 469 211 z "},">":{"ha":583,"x_min":17,"x_max":513,"o":"m 17 418 l 17 467 l 513 279 l 17 22 l 17 179 l 290 319 l 17 418 z "},"!":{"ha":261,"x_min":18,"x_max":242,"o":"m 18 976 l 242 976 l 167 232 l 93 232 l 18 976 m 56 86 q 77 148 56 122 q 131 174 99 174 q 183 148 161 174 q 206 86 206 122 q 183 23 206 49 q 131 -3 161 -3 q 77 23 99 -3 q 56 86 56 49 z "},"?":{"ha":465,"x_min":8,"x_max":400,"o":"m 126 958 q 166 969 146 965 q 206 972 186 972 q 285 958 247 972 q 349 915 322 943 q 388 844 376 886 q 392 749 400 803 q 360 642 382 682 q 314 574 339 603 q 263 522 289 546 q 218 463 238 497 q 189 390 199 429 q 174 319 179 351 q 168 243 168 281 q 154 232 164 232 q 135 244 146 232 q 115 282 125 256 q 102 333 108 303 q 94 397 96 363 q 94 468 92 432 q 107 538 97 504 q 141 599 118 571 q 188 656 164 626 q 232 716 213 685 q 256 786 251 747 q 253 829 258 811 q 240 858 249 847 q 220 873 232 868 q 197 878 208 878 q 174 874 185 878 q 160 861 164 869 q 154 829 153 849 q 156 786 156 810 q 154 737 157 763 q 138 686 151 711 q 107 651 124 663 q 75 638 90 640 q 42 636 58 633 q 47 672 53 647 q 25 731 42 696 q 13 778 17 747 q 17 844 8 810 q 50 910 25 878 q 126 958 75 942 m 147 174 q 201 148 179 174 q 222 86 222 122 q 201 24 222 50 q 147 -3 179 -3 q 94 24 117 -3 q 72 86 72 50 q 94 148 72 122 q 147 174 117 174 z "},"'":{"ha":183,"x_min":10,"x_max":181,"o":"m 181 882 l 10 696 l 58 882 l 181 882 z "},"\"":{"ha":378,"x_min":10,"x_max":376,"o":"m 254 882 l 376 882 l 206 696 l 254 882 m 58 882 l 181 882 l 10 696 l 58 882 z "},"#":{"ha":1153,"x_min":69,"x_max":1083,"o":"m 69 218 l 122 368 l 351 368 l 388 465 l 140 465 l 193 615 l 443 615 l 510 797 l 490 831 l 683 831 l 651 776 l 593 615 l 768 615 l 835 797 l 815 831 l 1008 831 l 976 776 l 918 615 l 1083 615 l 1031 465 l 863 465 l 826 368 l 1014 368 l 961 218 l 772 218 l 706 38 l 725 1 l 532 1 l 549 32 l 561 51 l 622 218 l 446 218 l 381 38 l 400 1 l 207 1 l 235 51 l 296 218 l 69 218 m 676 368 l 713 465 l 538 465 l 501 368 l 676 368 z "},"@":{"ha":819,"x_min":10,"x_max":815,"o":"m 413 981 q 552 963 493 982 q 654 911 611 943 q 725 839 697 879 q 768 758 753 799 q 788 681 783 718 q 790 619 793 644 q 776 549 788 586 q 746 482 765 513 q 700 431 726 451 q 639 411 674 411 q 550 460 582 411 q 487 376 528 411 q 389 342 446 342 q 295 387 331 342 q 260 504 260 432 q 270 591 260 546 q 298 674 281 636 q 338 737 315 711 q 386 767 361 763 q 440 764 415 771 q 479 750 464 757 l 479 768 l 619 768 q 607 682 610 722 q 606 614 604 647 q 622 565 608 581 q 643 554 633 554 q 668 586 660 554 q 675 653 676 618 q 672 701 675 675 q 658 755 668 728 q 626 807 647 782 q 569 850 606 832 q 510 872 542 864 q 442 879 478 879 q 319 851 379 879 q 218 751 258 822 q 172 625 188 696 q 162 483 156 554 q 199 349 168 413 q 293 246 231 286 q 348 219 322 226 q 397 211 374 211 q 467 228 435 211 q 531 264 500 244 q 591 301 561 283 q 654 319 621 318 q 717 308 690 322 q 765 273 744 293 q 797 232 785 253 q 815 199 810 211 q 803 212 811 206 q 781 218 796 218 q 754 213 767 218 q 718 174 733 204 q 676 110 703 144 q 601 46 649 76 q 467 4 553 15 q 283 26 364 -8 q 146 126 203 61 q 56 281 89 192 q 17 464 24 369 q 30 650 10 558 q 99 815 50 742 q 225 934 147 889 q 413 981 303 979 m 421 454 q 442 488 431 454 q 460 569 453 521 q 465 650 467 617 q 454 683 464 683 q 433 650 444 683 q 415 569 422 617 q 410 488 408 521 q 421 454 411 454 z "},"$":{"ha":794,"x_min":69,"x_max":731,"o":"m 186 410 q 193 408 190 410 q 199 396 200 404 q 197 369 199 390 q 197 324 194 349 q 207 278 199 300 q 235 247 215 256 q 292 233 254 239 q 369 226 329 226 q 449 234 411 226 q 504 261 488 242 q 519 301 521 279 q 498 351 517 322 q 446 417 479 379 q 364 504 413 454 q 221 691 269 604 q 197 854 172 778 q 224 899 206 882 q 265 924 242 915 q 315 935 288 933 q 371 936 342 938 l 371 939 l 354 972 l 565 972 l 538 917 q 572 919 558 915 q 596 930 586 924 q 613 936 606 936 q 624 928 619 936 l 500 671 q 493 674 496 671 q 492 703 488 681 q 500 730 494 715 q 508 759 506 744 q 508 786 510 774 q 494 807 506 799 q 447 824 475 824 q 410 808 426 824 q 399 753 394 793 q 438 661 403 706 q 518 572 472 617 q 612 483 564 528 q 690 390 660 438 q 726 288 721 342 q 689 175 731 235 q 624 116 665 140 q 532 81 582 92 l 532 68 l 565 1 l 354 1 l 386 68 l 386 78 q 365 83 372 81 q 300 105 328 94 q 251 124 272 115 q 215 139 231 133 q 186 144 199 144 q 165 139 179 144 q 138 119 150 132 q 115 96 126 107 q 93 79 104 85 q 69 79 82 74 l 186 410 z "},"€":{"ha":676,"x_min":69,"x_max":607,"o":"m 69 393 l 176 393 q 169 482 171 438 q 171 571 168 526 l 69 571 l 69 658 l 178 658 q 197 763 185 714 q 228 851 208 813 q 315 947 261 919 q 415 964 368 975 q 456 945 439 958 q 485 919 472 932 q 510 900 499 907 q 535 900 522 893 q 569 928 556 911 q 593 946 582 946 q 607 938 601 946 l 506 640 q 497 640 501 639 q 489 651 490 640 q 489 672 488 658 q 489 703 490 685 q 483 744 488 722 q 467 792 479 767 q 401 849 440 849 q 359 826 376 849 q 331 772 342 803 q 315 708 319 740 q 307 658 310 676 l 406 658 l 406 571 l 301 571 q 301 482 299 526 q 307 393 303 438 l 406 393 l 406 306 l 321 306 q 357 194 335 238 q 410 151 379 151 q 438 165 418 151 q 478 202 457 178 q 517 260 500 226 q 535 338 533 294 q 547 331 542 338 q 553 310 551 324 q 553 269 556 297 q 535 197 550 243 q 497 107 519 151 q 444 30 474 63 q 383 -3 415 -3 q 315 22 346 -3 q 260 88 285 46 q 217 185 235 129 q 188 306 199 242 l 69 306 l 69 393 z "},"%":{"ha":738,"x_min":69,"x_max":668,"o":"m 161 54 l 435 928 l 415 968 l 608 968 l 578 904 l 306 39 l 325 -3 l 133 -3 l 161 54 m 565 357 q 605 343 586 357 q 638 305 624 329 q 660 248 651 281 q 668 178 668 215 q 660 108 668 140 q 638 50 651 75 q 605 11 624 25 q 565 -3 586 -3 q 526 11 544 -3 q 493 50 507 25 q 471 108 479 75 q 463 178 463 140 q 471 248 463 215 q 493 305 479 281 q 526 343 507 329 q 565 357 544 357 m 172 968 q 212 954 193 968 q 244 915 231 940 q 267 858 258 890 q 275 788 275 825 q 267 717 275 750 q 244 660 258 685 q 212 622 231 636 q 172 608 193 608 q 133 622 151 608 q 100 660 114 636 q 78 717 86 685 q 69 788 69 750 q 78 858 69 825 q 100 915 86 890 q 133 954 114 940 q 172 968 151 968 m 543 178 q 549 101 543 133 q 565 69 556 69 q 581 101 575 69 q 588 178 588 133 q 581 253 588 222 q 565 285 575 285 q 549 253 556 285 q 543 178 543 222 m 172 681 q 188 712 182 681 q 194 788 194 743 q 188 864 194 832 q 172 896 182 896 q 156 864 163 896 q 150 788 150 832 q 156 712 150 743 q 172 681 163 681 z "},"&":{"ha":831,"x_min":15,"x_max":760,"o":"m 19 263 q 33 336 22 301 q 57 401 43 371 q 86 453 71 431 q 111 489 101 475 q 72 548 89 513 q 57 628 54 583 q 75 708 61 671 q 115 772 89 744 q 180 815 140 799 q 274 831 219 831 q 367 803 328 831 q 433 740 407 775 q 472 674 458 706 q 485 632 485 642 q 470 601 485 624 q 436 553 456 578 q 398 505 417 528 q 371 472 379 482 q 405 451 386 465 q 439 418 424 438 q 460 387 446 410 q 492 332 474 364 q 585 385 533 360 q 690 411 638 411 q 742 401 722 411 q 760 392 753 397 q 719 381 740 389 q 679 360 701 374 q 633 322 657 346 q 585 266 604 292 q 554 224 565 240 q 599 143 578 183 q 639 71 621 103 q 678 1 660 35 l 486 1 q 475 25 481 13 q 462 52 469 36 q 444 88 454 68 q 420 63 436 78 q 379 35 404 49 q 319 11 354 21 q 239 1 285 1 q 138 23 181 1 q 67 81 94 44 q 28 164 40 117 q 19 263 15 211 m 292 142 q 340 214 333 174 q 333 294 347 254 q 287 368 318 333 q 221 424 256 403 q 167 323 179 375 q 164 227 156 271 q 196 155 172 183 q 249 126 219 126 q 292 142 272 126 m 200 643 q 219 558 200 597 q 269 486 238 518 q 285 515 275 493 q 304 563 294 538 q 321 610 314 588 q 326 639 328 633 q 317 666 325 647 q 298 705 308 685 q 277 741 288 725 q 261 758 267 757 q 245 756 256 761 q 225 738 235 751 q 208 702 215 725 q 200 643 200 679 z "},"(":{"ha":333,"x_min":21,"x_max":332,"o":"m 122 981 l 332 981 q 300 897 318 949 q 266 776 282 844 q 240 622 250 707 q 234 438 231 536 q 258 229 238 339 q 322 1 278 119 l 113 1 q 48 229 68 119 q 24 438 28 339 q 31 622 21 536 q 56 776 40 707 q 90 897 72 844 q 122 981 108 949 z "},")":{"ha":333,"x_min":0,"x_max":311,"o":"m 210 976 q 242 892 224 944 q 276 772 260 840 q 301 617 292 703 q 308 433 311 532 q 284 225 304 335 q 219 -3 264 115 l 10 -3 q 74 225 54 115 q 98 433 94 335 q 92 617 101 532 q 66 772 82 703 q 32 892 50 840 q 0 976 14 944 l 210 976 z "},"{":{"ha":328,"x_min":4,"x_max":321,"o":"m 69 603 q 72 674 72 628 q 70 767 71 719 q 70 853 69 814 q 75 903 71 892 q 85 927 79 914 q 102 951 92 940 q 128 969 113 963 q 168 976 144 976 l 321 976 q 292 954 304 972 q 271 908 281 939 q 261 818 261 876 q 265 740 261 789 q 267 641 268 692 q 258 547 267 590 q 224 486 249 504 q 258 426 249 469 q 267 333 267 383 q 265 233 268 282 q 261 154 261 183 q 271 66 261 97 q 292 19 281 35 q 321 -3 304 1 l 168 -3 q 128 4 144 -3 q 102 22 113 11 q 85 47 92 33 q 75 71 79 60 q 70 121 71 82 q 70 206 69 160 q 72 299 71 253 q 69 369 72 344 q 56 416 67 394 q 35 453 46 438 q 4 486 21 471 q 35 519 21 501 q 56 556 46 535 q 69 603 67 578 z "},"|":{"ha":257,"x_min":19,"x_max":238,"o":"m 238 981 q 203 911 204 953 l 203 71 l 238 1 l 19 1 l 53 71 l 53 911 q 42 953 50 936 q 19 981 33 969 l 238 981 z "},"}":{"ha":328,"x_min":6,"x_max":322,"o":"m 65 154 q 62 233 65 183 q 59 333 58 282 q 69 426 60 383 q 103 486 78 469 q 69 547 78 504 q 59 641 60 590 q 62 740 58 692 q 65 818 65 789 q 56 908 65 876 q 36 954 47 939 q 6 976 22 972 l 158 976 q 198 969 182 976 q 224 951 214 963 q 241 927 235 940 q 251 903 247 914 q 256 853 256 892 q 256 767 257 814 q 256 674 256 719 q 257 603 256 628 q 270 556 260 578 q 292 519 281 535 q 322 486 306 501 q 292 453 306 471 q 270 416 281 438 q 257 369 260 394 q 256 299 256 344 q 256 206 256 253 q 256 121 257 160 q 251 71 256 82 q 241 47 247 60 q 224 22 235 33 q 198 4 214 11 q 158 -3 182 -3 l 6 -3 q 36 19 22 1 q 56 66 47 35 q 65 154 65 97 z "},"[":{"ha":415,"x_min":18,"x_max":346,"o":"m 18 -3 q 51 67 47 18 l 51 907 q 18 976 47 960 l 346 976 l 346 888 l 201 888 l 201 86 l 346 86 l 346 -3 l 18 -3 z "},"]":{"ha":414,"x_min":69,"x_max":397,"o":"m 69 892 l 69 981 l 397 981 q 363 911 369 964 l 363 71 q 397 1 369 22 l 69 1 l 69 90 l 213 90 l 213 892 l 69 892 z "},"‘":{"ha":160,"x_min":6,"x_max":199,"o":"m 199 1044 l 108 896 l 6 896 l 81 1044 l 199 1044 z "},"’":{"ha":167,"x_min":7,"x_max":200,"o":"m 200 1036 l 110 888 l 7 888 l 82 1036 l 200 1036 z "},"“":{"ha":306,"x_min":6,"x_max":338,"o":"m 144 883 l 218 1032 l 338 1032 l 246 883 l 144 883 m 6 883 l 81 1032 l 199 1032 l 108 883 l 6 883 z "},"”":{"ha":304,"x_min":7,"x_max":339,"o":"m 146 888 l 219 1036 l 339 1036 l 247 888 l 146 888 m 7 888 l 82 1036 l 200 1036 l 110 888 l 7 888 z "},"‚":{"ha":146,"x_min":7,"x_max":138,"o":"m 138 56 l 56 -151 l 7 56 l 138 56 z "},"„":{"ha":301,"x_min":7,"x_max":294,"o":"m 163 56 l 294 56 l 213 -151 l 163 56 m 7 56 l 138 56 l 56 -151 l 7 56 z "},"•":{"ha":268,"x_min":14,"x_max":254,"o":"m 14 368 q 24 415 14 393 q 49 453 33 438 q 87 479 65 469 q 133 489 108 489 q 219 453 183 489 q 254 368 254 418 q 244 322 254 343 q 219 284 235 300 q 181 258 203 268 q 133 249 158 249 q 87 258 108 249 q 49 284 65 268 q 24 322 33 300 q 14 368 14 343 z "},"_":{"ha":579,"x_min":14,"x_max":564,"o":"m 14 -3 l 14 147 l 564 147 l 564 -3 l 14 -3 z "},"–":{"ha":304,"x_min":14,"x_max":289,"o":"m 14 276 l 14 426 l 289 426 l 289 276 l 14 276 z "},"—":{"ha":579,"x_min":14,"x_max":564,"o":"m 14 276 l 14 426 l 564 426 l 564 276 l 14 276 z "},"¯":{"ha":304,"x_min":14,"x_max":289,"o":"m 14 732 l 14 882 l 289 882 l 289 732 l 14 732 z "},"¬":{"ha":628,"x_min":14,"x_max":610,"o":"m 610 428 l 610 142 l 460 142 l 460 278 l 14 278 l 14 428 l 610 428 z "},"™":{"ha":872,"x_min":6,"x_max":851,"o":"m 481 1039 l 547 1039 l 613 907 l 678 1039 l 851 1039 l 851 678 l 701 678 l 701 836 l 646 711 l 614 711 l 547 858 l 547 678 l 481 678 l 481 1039 m 103 1039 l 342 1039 l 439 846 l 297 939 l 297 678 l 147 678 l 147 939 l 6 846 l 103 1039 z "},"®":{"ha":729,"x_min":14,"x_max":715,"o":"m 14 415 q 42 551 14 488 q 117 663 69 615 q 228 738 164 710 q 364 765 292 765 q 501 738 438 765 q 613 663 565 710 q 688 551 660 615 q 715 415 715 488 q 688 278 715 343 q 613 167 660 214 q 501 92 565 119 q 364 64 438 64 q 228 92 292 64 q 117 167 164 119 q 42 278 69 214 q 14 415 14 343 m 158 415 q 174 322 158 365 q 218 245 190 278 q 283 194 246 213 q 364 175 321 175 q 444 194 407 175 q 510 245 482 213 q 555 322 539 278 q 571 415 571 365 q 555 508 571 465 q 510 584 539 551 q 444 635 482 617 q 364 654 407 654 q 283 635 321 654 q 218 584 246 617 q 174 508 190 551 q 158 415 158 465 m 224 564 l 349 564 q 392 563 371 565 q 428 553 410 560 q 460 532 447 547 q 472 481 479 513 q 429 426 465 450 l 504 264 l 407 264 l 363 406 q 349 404 358 404 l 349 264 l 224 264 l 224 564 m 349 526 l 349 444 q 376 467 365 454 q 388 493 386 481 q 379 515 389 506 q 349 526 369 524 z "},"©":{"ha":729,"x_min":14,"x_max":715,"o":"m 14 411 q 42 547 14 483 q 117 658 69 611 q 228 733 164 706 q 364 761 292 761 q 501 733 438 761 q 613 658 565 706 q 688 547 660 611 q 715 411 715 483 q 688 274 715 339 q 613 163 660 210 q 501 88 565 115 q 364 60 438 60 q 228 88 292 60 q 117 163 164 115 q 42 274 69 210 q 14 411 14 339 m 158 411 q 174 317 158 361 q 218 241 190 274 q 283 190 246 208 q 364 171 321 171 q 444 190 407 171 q 510 241 482 208 q 555 317 539 274 q 571 411 571 361 q 555 504 571 461 q 510 580 539 547 q 444 631 482 613 q 364 650 407 650 q 283 631 321 650 q 218 580 246 613 q 174 504 190 547 q 158 411 158 461 m 317 567 q 357 576 336 576 q 380 574 369 576 q 399 568 390 571 q 415 558 407 564 q 418 563 417 560 l 429 574 q 440 579 435 579 q 454 574 447 579 q 461 563 461 569 q 456 541 461 558 q 444 504 451 524 q 429 456 438 482 q 411 467 411 458 q 407 482 411 475 q 382 493 399 493 q 364 481 369 493 q 357 453 360 472 q 353 414 354 435 q 357 376 353 393 q 371 353 361 358 q 389 351 382 347 q 401 361 396 354 q 409 377 406 368 q 415 392 413 386 q 423 401 418 399 q 432 406 428 404 q 443 407 438 407 l 471 253 q 463 249 467 250 q 446 247 456 243 q 431 256 438 253 q 414 253 424 258 q 397 246 410 250 q 367 242 385 242 q 319 254 344 242 q 276 306 294 267 q 258 381 261 339 q 263 460 256 422 q 284 528 269 499 q 317 567 299 557 z "},"¤":{"ha":500,"x_min":18,"x_max":481,"o":"m 19 553 q 33 553 21 557 q 60 544 44 550 q 93 529 76 538 q 121 515 110 521 q 250 556 176 556 q 378 515 322 556 q 406 529 389 521 q 438 544 422 538 q 466 553 454 550 q 479 553 478 557 q 477 534 481 549 q 467 503 474 519 q 455 469 461 486 q 444 443 449 453 q 466 390 458 418 q 474 333 474 363 q 446 225 474 274 q 456 199 450 215 q 468 166 463 182 q 477 137 474 150 q 479 119 481 124 q 467 118 478 115 q 442 127 457 121 q 412 141 428 133 q 383 154 396 149 q 250 110 328 110 q 178 122 213 110 q 115 154 143 133 q 88 141 104 149 q 58 127 72 133 q 32 118 43 121 q 19 119 21 115 q 22 138 18 124 q 31 167 25 151 q 42 200 36 183 q 53 226 49 217 q 26 333 26 276 q 56 442 26 394 q 44 468 51 451 q 31 502 38 485 q 22 534 25 519 q 19 553 18 549 m 150 333 q 179 244 150 281 q 250 208 208 208 q 321 244 292 208 q 350 333 350 281 q 321 421 350 385 q 250 457 292 457 q 179 421 208 457 q 150 333 150 385 z "},"¢":{"ha":481,"x_min":15,"x_max":464,"o":"m 138 672 q 172 688 156 682 q 207 696 189 693 l 176 768 l 394 768 l 361 686 l 361 683 q 400 669 382 676 q 432 656 418 663 q 461 639 447 647 q 443 529 451 578 q 435 489 439 508 q 426 454 431 469 q 418 428 422 439 q 410 418 414 418 q 392 442 401 417 q 365 497 382 467 q 324 553 349 528 q 261 581 299 579 q 215 565 236 582 q 178 518 193 547 q 153 452 163 489 q 144 377 144 415 q 153 302 144 339 q 181 238 161 265 q 213 208 196 217 q 250 199 231 199 q 310 214 279 199 q 368 248 342 229 q 415 283 394 267 q 444 300 436 299 q 460 296 456 303 q 463 281 464 289 q 458 256 463 269 q 415 183 440 215 q 361 128 390 151 l 361 82 l 394 0 l 176 0 l 206 69 q 135 86 168 71 q 78 135 101 101 q 40 213 56 167 q 20 313 25 260 q 19 422 15 367 q 37 527 22 478 q 76 615 51 576 q 138 672 101 653 z "},"£":{"ha":724,"x_min":69,"x_max":654,"o":"m 69 -1 q 85 46 69 35 q 138 69 100 57 q 173 83 156 76 q 205 100 190 89 q 231 128 219 111 q 247 175 242 146 q 249 290 254 215 q 238 460 244 364 l 124 460 l 124 633 l 229 633 l 229 636 q 241 767 228 706 q 281 874 254 828 q 344 947 307 919 q 429 974 382 974 q 565 921 492 974 q 579 914 574 915 q 590 913 585 913 q 599 914 594 913 q 610 914 604 915 q 620 888 622 911 q 608 828 618 864 q 594 790 603 808 q 575 756 585 771 q 551 719 564 736 q 541 728 544 719 q 539 749 538 738 q 540 769 539 754 q 538 802 540 785 q 528 835 535 819 q 506 856 521 850 q 474 858 490 861 q 444 842 458 856 q 421 804 431 829 q 408 740 411 779 q 407 691 407 718 q 407 633 407 664 l 556 633 l 556 460 l 415 460 q 421 390 418 424 q 426 331 424 357 q 431 257 431 290 q 431 199 432 224 q 428 144 431 168 q 472 117 439 131 q 541 92 504 104 q 608 72 578 81 q 644 58 639 63 q 653 45 651 54 q 654 26 654 36 q 651 3 654 15 l 69 -1 z "},"¥":{"ha":604,"x_min":69,"x_max":585,"o":"m 69 978 l 249 978 l 235 947 l 374 640 l 499 904 l 488 928 l 585 928 l 432 603 l 575 603 l 575 425 l 424 425 l 424 403 l 575 403 l 575 226 l 424 226 l 424 71 l 457 3 l 239 3 l 272 71 l 272 226 l 132 226 l 132 403 l 272 403 l 272 425 l 132 425 l 132 603 l 240 603 l 69 978 z "},"ƒ":{"ha":814,"x_min":69,"x_max":744,"o":"m 183 -169 q 215 -130 200 -161 q 247 -41 231 -99 q 284 103 264 17 q 329 310 304 190 l 189 310 l 189 460 l 361 460 q 392 586 378 535 q 423 670 407 638 q 459 717 439 703 q 508 735 479 732 q 571 733 543 739 q 619 718 599 728 q 654 697 640 708 q 676 679 668 686 q 694 671 688 671 q 711 675 704 671 q 725 682 718 679 q 739 681 733 686 q 744 676 742 679 l 690 499 q 683 506 686 501 q 672 533 676 515 q 666 576 669 553 q 644 622 663 600 q 597 650 624 650 q 569 636 579 650 q 553 580 565 629 q 525 460 540 531 l 693 460 l 693 310 l 492 310 q 456 142 472 222 q 431 14 440 61 q 391 -108 415 -57 q 337 -190 367 -158 q 274 -235 307 -221 q 210 -250 242 -250 q 113 -210 154 -250 q 69 -107 72 -171 q 81 -131 72 -118 q 103 -153 90 -143 q 130 -169 115 -162 q 158 -175 144 -175 q 183 -169 172 -175 z "},"−":{"ha":478,"x_min":14,"x_max":464,"o":"m 14 203 l 14 353 l 464 353 l 464 203 l 14 203 z "},"±":{"ha":483,"x_min":17,"x_max":467,"o":"m 17 224 l 17 374 l 167 374 l 167 524 l 317 524 l 317 374 l 467 374 l 467 224 l 317 224 l 317 74 l 167 74 l 167 224 l 17 224 m 17 -107 l 17 43 l 467 43 l 467 -107 l 17 -107 z "},"×":{"ha":443,"x_min":10,"x_max":433,"o":"m 115 510 l 235 390 l 354 510 l 407 457 l 288 338 l 433 192 l 328 86 l 182 232 l 89 139 l 36 192 l 129 285 l 10 404 l 115 510 z "},"÷":{"ha":464,"x_min":7,"x_max":457,"o":"m 457 321 l 457 171 l 7 171 l 7 321 l 457 321 m 232 118 q 285 97 264 118 q 307 43 307 75 q 285 -10 307 11 q 232 -32 264 -32 q 178 -10 200 -32 q 157 43 157 11 q 178 97 157 75 q 232 118 200 118 m 157 449 q 178 501 157 479 q 232 524 200 524 q 285 501 264 524 q 307 449 307 479 q 285 395 307 417 q 232 374 264 374 q 178 395 200 374 q 157 449 157 417 z "},"¦":{"ha":260,"x_min":21,"x_max":239,"o":"m 21 -4 l 54 65 l 54 369 l 21 438 l 239 438 l 204 369 l 204 65 l 239 -4 l 21 -4 m 21 974 l 239 974 l 204 906 l 204 601 l 239 532 l 21 532 l 54 601 l 54 906 l 21 974 z "},"…":{"ha":522,"x_min":11,"x_max":510,"o":"m 11 71 q 33 124 11 103 q 86 146 54 146 q 140 124 118 146 q 161 71 161 103 q 140 17 161 39 q 86 -4 118 -4 q 33 17 54 -4 q 11 71 11 39 m 261 146 q 315 124 293 146 q 336 71 336 103 q 315 17 336 39 q 261 -4 293 -4 q 208 17 229 -4 q 186 71 186 39 q 208 124 186 103 q 261 146 229 146 m 360 71 q 382 124 360 103 q 435 146 404 146 q 488 124 467 146 q 510 71 510 103 q 488 17 510 39 q 435 -4 467 -4 q 382 17 404 -4 q 360 71 360 39 z "},"·":{"ha":172,"x_min":11,"x_max":161,"o":"m 11 308 q 33 362 11 340 q 86 383 54 383 q 140 362 118 383 q 161 308 161 340 q 140 255 161 276 q 86 233 118 233 q 33 255 54 233 q 11 308 11 276 z "},"¡":{"ha":261,"x_min":18,"x_max":242,"o":"m 18 4 l 94 749 l 167 749 l 242 4 l 18 4 m 56 894 q 77 956 56 931 q 131 982 99 982 q 183 956 161 982 q 206 894 206 931 q 183 832 206 858 q 131 806 161 806 q 77 832 99 806 q 56 894 56 858 z "},"¿":{"ha":465,"x_min":64,"x_max":457,"o":"m 72 219 q 105 326 83 286 q 151 396 126 367 q 201 449 176 425 q 246 507 226 474 q 276 580 265 542 q 292 651 286 618 q 297 728 297 690 q 311 739 301 739 q 349 689 331 739 q 362 638 356 668 q 371 574 368 608 q 372 503 374 539 q 358 433 369 467 q 325 372 349 400 q 277 314 301 343 q 233 253 253 285 q 208 183 213 222 q 210 140 206 157 q 224 111 215 122 q 245 95 233 100 q 268 90 257 90 q 290 94 279 90 q 304 107 300 99 q 310 139 311 119 q 308 183 310 158 q 310 233 307 207 q 326 282 313 258 q 358 318 342 307 q 389 332 374 329 q 424 332 407 335 q 418 297 413 321 q 440 239 424 272 q 453 191 449 222 q 449 125 457 160 q 415 58 440 90 q 339 10 390 26 q 299 -1 319 3 q 260 -4 279 -4 q 181 10 218 -4 q 116 53 143 25 q 76 124 89 82 q 72 219 64 165 m 317 974 q 370 948 349 974 q 392 886 392 922 q 370 824 392 850 q 317 797 349 797 q 264 824 286 797 q 242 886 242 850 q 264 948 242 922 q 317 974 286 974 z "},"°":{"ha":308,"x_min":14,"x_max":294,"o":"m 14 904 q 25 959 14 933 q 55 1003 36 985 q 99 1033 74 1022 q 154 1044 125 1044 q 209 1033 183 1044 q 253 1003 235 1022 q 283 959 272 985 q 294 904 294 933 q 283 849 294 875 q 253 805 272 824 q 209 775 235 786 q 154 764 183 764 q 99 775 125 764 q 55 805 74 786 q 25 849 36 824 q 14 904 14 875 m 154 849 q 193 865 178 849 q 208 904 208 881 q 193 943 208 928 q 154 958 178 958 q 115 943 131 958 q 99 904 99 928 q 115 865 99 881 q 154 849 131 849 z "},"ª":{"ha":301,"x_min":-3,"x_max":292,"o":"m 268 926 q 272 873 271 899 q 273 826 272 847 q 278 789 274 804 q 292 768 282 774 q 235 765 261 767 q 194 765 214 765 q 172 767 175 765 q 163 779 168 768 q 161 790 161 785 q 136 772 150 779 q 108 763 124 765 q 72 764 92 760 q 23 806 33 774 q 24 868 13 838 q 42 897 29 883 q 71 922 54 911 q 106 938 88 932 q 142 944 125 944 q 131 958 138 951 q 115 967 124 963 q 94 971 107 971 q 74 964 83 971 q 58 950 65 957 q 44 928 50 940 l -3 986 q 47 1027 11 1013 q 124 1042 83 1042 q 173 1035 149 1042 q 217 1015 197 1029 q 251 980 238 1001 q 268 926 264 958 m 97 835 q 110 831 103 831 q 124 835 117 832 q 140 842 132 836 l 142 883 q 124 881 133 888 q 106 866 114 875 q 95 848 99 857 q 97 835 92 839 z "},"º":{"ha":306,"x_min":13,"x_max":293,"o":"m 13 908 q 24 963 13 938 q 53 1008 35 989 q 98 1038 72 1026 q 153 1049 124 1049 q 208 1038 182 1049 q 252 1008 233 1026 q 282 963 271 989 q 293 908 293 938 q 282 853 293 879 q 252 809 271 828 q 208 779 233 790 q 153 768 182 768 q 98 779 124 768 q 53 809 72 790 q 24 853 35 828 q 13 908 13 879 m 153 853 q 192 869 176 853 q 207 908 207 885 q 192 947 207 932 q 153 963 176 963 q 113 947 129 963 q 97 908 97 932 q 113 869 97 885 q 153 853 129 853 z "},"¹":{"ha":211,"x_min":6,"x_max":193,"o":"m 6 929 q 39 981 22 956 q 72 1031 56 1006 q 128 1040 97 1040 q 160 1038 144 1040 q 193 1031 176 1035 l 193 707 l 72 707 l 72 954 l 6 929 z "},"²":{"ha":297,"x_min":10,"x_max":290,"o":"m 78 844 q 135 905 118 885 q 156 938 153 925 q 156 953 157 944 q 153 967 156 961 q 145 976 150 974 q 132 972 140 978 q 133 942 136 956 q 124 921 132 931 q 97 910 117 911 q 65 918 78 908 q 48 943 53 928 q 47 976 43 958 q 63 1011 50 994 q 94 1033 74 1025 q 139 1040 115 1040 q 197 1026 169 1040 q 239 981 225 1013 q 247 926 251 953 q 231 875 243 899 q 200 833 218 851 q 165 801 182 814 q 197 808 182 806 q 225 812 211 811 q 247 808 239 813 q 269 784 264 801 q 274 756 274 767 q 282 740 274 746 q 290 738 286 739 q 272 722 282 729 q 249 712 263 717 q 217 707 236 707 q 183 711 203 707 q 103 725 126 725 q 85 724 93 725 q 69 719 78 722 q 33 718 49 715 q 14 740 18 721 q 24 782 10 760 q 78 844 38 804 z "},"³":{"ha":301,"x_min":13,"x_max":290,"o":"m 13 846 q 19 850 15 847 q 36 853 28 853 q 69 839 54 853 q 85 817 81 829 q 94 794 89 804 q 111 779 100 785 q 144 778 122 774 q 176 797 168 782 q 181 830 183 813 q 168 865 179 847 q 142 890 157 882 q 113 902 126 899 q 89 908 100 906 q 67 910 76 910 l 161 997 q 119 999 138 997 l 69 999 q 52 983 63 999 q 40 949 42 968 q 32 978 36 963 q 27 1008 29 992 q 26 1040 25 1024 l 290 1040 l 210 926 q 247 908 231 919 q 273 882 261 899 q 286 840 285 865 q 278 792 288 815 q 248 749 268 768 q 200 718 228 729 q 136 707 172 707 q 78 717 101 707 q 42 740 56 726 q 24 771 29 754 q 21 801 19 788 q 18 838 22 828 q 13 846 15 843 z "},"⁄":{"ha":739,"x_min":69,"x_max":669,"o":"m 179 21 l 192 -6 l 69 -6 l 563 956 l 551 978 l 669 978 l 179 21 z "},"¼":{"ha":665,"x_min":69,"x_max":669,"o":"m 563 968 l 551 992 l 669 992 l 179 33 l 192 7 l 69 7 l 563 968 m 140 979 q 199 992 169 992 q 233 988 217 992 q 268 979 250 985 l 268 571 l 140 571 l 140 883 l 69 851 q 105 915 88 883 q 140 979 122 947 m 529 428 l 600 356 q 568 306 585 332 q 539 257 551 281 q 510 204 524 231 l 553 211 l 553 247 l 646 247 l 646 7 l 543 7 l 543 151 q 507 144 526 149 q 472 136 488 139 q 436 128 454 132 l 406 171 l 529 428 z "},"½":{"ha":739,"x_min":69,"x_max":669,"o":"m 563 964 l 551 988 l 669 988 l 179 29 l 192 3 l 69 3 l 563 964 m 444 176 q 506 253 488 226 q 526 294 524 279 q 526 325 529 307 q 513 343 524 343 q 501 338 507 343 q 504 299 506 317 q 494 272 501 283 q 465 258 486 260 q 431 269 444 257 q 413 301 418 282 q 411 344 407 321 q 429 386 415 367 q 464 414 442 404 q 511 424 486 424 q 572 406 543 424 q 615 349 601 389 q 624 280 628 314 q 606 216 619 246 q 574 162 593 186 q 538 121 554 138 q 572 131 556 126 q 601 135 586 133 q 624 132 615 136 q 648 101 643 122 q 653 65 653 81 q 661 46 653 51 q 669 42 664 43 q 650 22 661 31 q 626 9 640 15 q 592 3 611 3 q 557 8 574 3 q 504 22 524 18 q 471 25 485 25 q 453 24 461 25 q 436 19 446 22 q 408 15 422 15 q 388 22 396 15 q 376 46 379 28 q 386 99 372 71 q 444 176 400 126 m 69 847 q 105 911 88 879 q 140 975 122 943 q 199 988 169 988 q 233 984 217 988 q 268 975 250 981 l 268 567 l 140 567 l 140 879 l 69 847 z "},"¾":{"ha":619,"x_min":8,"x_max":608,"o":"m 8 3 l 501 964 l 490 988 l 608 988 l 118 29 l 131 3 l 8 3 m 69 733 q 85 706 81 721 q 95 678 89 690 q 113 658 101 665 q 149 657 124 651 q 182 681 174 663 q 188 722 190 700 q 174 766 185 744 q 146 797 163 788 q 116 813 131 808 q 90 821 101 818 q 67 824 78 824 l 167 933 q 122 935 142 933 l 69 935 q 51 915 63 935 q 38 872 40 896 q 29 910 32 890 q 24 946 26 925 q 24 988 22 967 l 303 988 l 217 844 q 257 821 239 836 q 285 788 272 808 q 300 735 299 767 q 290 674 301 704 q 258 619 279 643 q 208 581 238 596 q 140 567 178 567 q 78 579 103 567 q 40 610 54 592 q 22 649 26 628 q 18 686 17 669 q 18 715 19 704 q 14 732 17 725 q 8 743 11 740 q 15 747 11 744 q 33 750 26 750 q 51 747 42 750 q 69 733 60 744 m 492 424 l 561 351 q 530 302 546 328 q 501 253 514 276 q 472 200 486 226 l 515 207 l 515 243 l 608 243 l 608 3 l 506 3 l 506 147 q 469 140 488 144 q 435 132 450 135 q 399 124 417 128 l 367 167 l 492 424 z "},"‰":{"ha":969,"x_min":8,"x_max":900,"o":"m 336 200 q 347 278 336 242 q 376 342 357 315 q 419 385 394 369 q 472 401 444 401 q 525 385 500 401 q 569 342 550 369 q 598 278 588 315 q 608 200 608 242 q 598 122 608 158 q 569 58 588 85 q 525 15 550 31 q 472 -1 500 -1 q 419 15 444 -1 q 376 58 394 31 q 347 122 357 85 q 336 200 336 158 m 144 983 q 197 967 172 983 q 241 924 222 951 q 270 860 260 897 q 281 782 281 824 q 270 703 281 740 q 241 640 260 667 q 197 597 222 613 q 144 581 172 581 q 92 597 117 581 q 48 640 67 613 q 19 703 29 667 q 8 782 8 740 q 19 860 8 824 q 48 924 29 897 q 92 967 67 951 q 144 983 117 983 m 628 200 q 638 278 628 242 q 667 342 649 315 q 711 385 686 369 q 764 401 736 401 q 817 385 792 401 q 860 342 842 369 q 890 278 879 315 q 900 200 900 242 q 890 122 900 158 q 860 58 879 85 q 817 15 842 31 q 764 -1 792 -1 q 711 15 736 -1 q 667 58 686 31 q 638 122 649 85 q 628 200 628 158 m 8 -1 l 501 960 l 490 983 l 608 983 l 118 25 l 131 -1 l 8 -1 m 743 200 q 749 124 743 156 q 764 93 756 93 q 778 124 772 93 q 783 200 783 156 q 778 275 783 244 q 764 306 772 306 q 749 275 756 306 q 743 200 743 244 m 472 93 q 487 124 481 93 q 493 200 493 156 q 487 275 493 244 q 472 306 481 306 q 458 275 464 306 q 453 200 453 244 q 458 124 453 156 q 472 93 464 93 m 144 675 q 158 706 153 675 q 164 782 164 738 q 158 857 164 826 q 144 888 153 888 q 130 857 136 888 q 124 782 124 826 q 130 706 124 738 q 144 675 136 675 z "},"μ":{"ha":561,"x_min":21,"x_max":542,"o":"m 21 967 l 239 967 l 204 899 l 204 433 q 248 380 219 400 q 311 360 276 360 q 358 371 336 360 q 397 401 381 382 q 422 447 413 421 q 432 501 432 472 l 432 899 l 399 967 l 542 967 l 507 899 l 507 206 l 542 138 l 399 138 l 432 206 l 432 321 q 376 285 407 297 q 311 272 346 272 q 204 308 251 272 l 204 65 l 239 -3 l 21 -3 l 54 65 l 54 899 l 21 967 z "},"¶":{"ha":635,"x_min":69,"x_max":614,"o":"m 224 967 q 236 965 232 967 l 236 967 l 581 967 l 581 65 l 614 -3 l 472 -3 l 506 65 l 506 879 l 386 879 l 386 65 l 421 -3 l 203 -3 l 236 65 l 236 576 q 224 575 232 575 q 164 590 192 575 q 115 632 136 606 q 82 694 94 658 q 69 771 69 731 q 82 847 69 811 q 115 910 94 883 q 164 951 136 936 q 224 967 192 967 z "},"§":{"ha":460,"x_min":11,"x_max":449,"o":"m 29 263 q 37 296 36 283 q 35 315 38 308 q 29 326 33 322 q 87 319 65 328 q 119 294 108 311 q 131 256 129 278 q 132 207 133 233 q 147 124 129 154 q 200 100 164 94 q 248 135 238 106 q 243 211 258 165 q 206 270 235 233 q 146 351 178 307 q 87 443 114 396 q 56 533 60 490 q 70 640 49 596 q 110 707 92 685 q 94 744 99 728 q 86 821 83 783 q 104 889 89 858 q 146 940 119 919 q 207 965 172 961 q 271 961 243 969 q 321 942 299 953 q 358 921 343 931 q 381 913 372 911 q 397 919 389 913 q 413 933 406 926 q 428 942 421 939 q 443 939 435 944 l 350 718 q 344 724 346 721 q 339 740 339 732 q 341 759 340 746 q 339 787 342 772 q 328 816 336 801 q 306 838 321 831 q 279 849 290 844 q 258 853 268 853 q 231 835 240 853 q 227 783 215 808 q 263 736 239 758 q 315 694 288 714 q 357 661 342 675 q 428 565 407 617 q 424 450 449 513 q 391 391 410 418 q 354 344 372 364 q 388 278 375 313 q 400 207 401 243 q 381 115 399 154 q 334 50 363 76 q 270 11 306 24 q 199 -1 235 -1 q 118 15 157 -1 q 53 65 79 32 q 19 148 26 99 q 29 263 11 197 m 219 499 q 255 463 235 482 q 294 419 275 443 q 307 467 304 440 q 294 522 310 494 q 242 581 278 554 q 169 640 206 608 q 172 576 164 614 q 219 499 181 539 z "},"†":{"ha":589,"x_min":69,"x_max":519,"o":"m 69 801 l 219 801 l 219 903 q 186 971 219 946 l 403 971 q 369 903 372 946 l 369 801 l 519 801 l 519 714 l 369 714 l 369 69 l 403 1 l 186 1 l 219 69 l 219 714 l 69 714 l 69 801 z "},"‡":{"ha":458,"x_min":4,"x_max":454,"o":"m 154 263 l 154 718 l 4 718 l 4 806 l 154 806 l 154 907 q 121 975 150 954 l 338 975 q 316 946 325 963 q 304 907 307 929 l 304 806 l 454 806 l 454 718 l 304 718 l 304 263 l 454 263 l 454 175 l 304 175 l 304 74 l 338 6 l 121 6 l 154 74 l 154 175 l 4 175 l 4 263 l 154 263 z "},"~":{"ha":421,"x_min":10,"x_max":411,"o":"m 156 431 q 184 426 167 431 q 221 415 201 421 q 262 403 240 408 q 304 397 283 397 q 346 406 326 397 q 378 439 365 415 l 411 372 q 381 349 397 358 q 347 331 365 339 q 304 324 328 324 q 272 329 288 324 q 213 349 238 340 q 165 358 189 358 q 133 352 153 358 q 94 336 114 346 q 57 315 74 326 q 36 296 40 304 l 10 368 q 54 400 31 386 q 101 422 74 411 q 156 431 128 432 z "},"‹":{"ha":256,"x_min":6,"x_max":243,"o":"m 243 194 l 144 97 l 6 269 l 172 483 l 231 426 l 144 321 l 243 194 z "},"›":{"ha":256,"x_min":11,"x_max":249,"o":"m 249 311 l 82 97 l 24 153 l 108 258 l 11 386 l 108 483 l 249 311 z "},"«":{"ha":488,"x_min":6,"x_max":475,"o":"m 144 321 l 243 194 l 144 97 l 6 269 l 172 483 l 231 426 l 144 321 m 475 194 l 376 97 l 238 269 l 404 483 l 463 426 l 376 321 l 475 194 z "},"»":{"ha":489,"x_min":11,"x_max":482,"o":"m 108 483 l 249 311 l 82 97 l 24 153 l 108 258 l 11 386 l 108 483 m 482 311 l 315 97 l 257 153 l 342 258 l 244 386 l 342 483 l 482 311 z "},"˘":{"ha":306,"x_min":7,"x_max":299,"o":"m 126 821 q 149 799 133 810 q 188 788 164 788 q 222 797 208 788 q 243 821 235 807 l 299 821 q 285 789 294 808 q 258 752 275 769 q 215 722 242 735 q 151 710 189 710 q 92 722 117 710 q 51 750 68 733 q 23 786 33 767 q 7 821 13 806 l 126 821 z "},"˙":{"ha":172,"x_min":11,"x_max":161,"o":"m 11 765 q 33 819 11 797 q 86 840 54 840 q 140 819 118 840 q 161 765 161 797 q 140 712 161 733 q 86 690 118 690 q 33 712 54 690 q 11 765 11 733 z "},"˚":{"ha":308,"x_min":14,"x_max":294,"o":"m 14 736 q 25 791 14 765 q 55 835 36 817 q 99 865 74 854 q 154 876 125 876 q 209 865 183 876 q 253 835 235 854 q 283 791 272 817 q 294 736 294 765 q 283 682 294 707 q 253 638 272 657 q 209 607 235 618 q 154 596 183 596 q 99 607 125 596 q 55 638 74 618 q 25 682 36 657 q 14 736 14 707 m 154 682 q 193 697 178 682 q 208 736 208 713 q 193 776 208 760 q 154 792 178 792 q 115 776 131 792 q 99 736 99 760 q 115 697 99 713 q 154 682 131 682 z "},"˝":{"ha":382,"x_min":7,"x_max":376,"o":"m 214 815 l 60 668 l 7 714 l 122 876 l 214 815 m 376 815 l 222 668 l 169 714 l 285 876 l 376 815 z "},"˛":{"ha":90,"x_min":-24,"x_max":199,"o":"m 63 57 l 83 36 q 73 17 79 31 q 64 -14 67 3 q 64 -46 61 -31 q 79 -69 67 -61 q 99 -75 89 -75 q 116 -71 108 -75 q 131 -61 124 -67 q 144 -46 139 -54 l 199 -136 q 175 -161 189 -150 q 144 -179 163 -171 q 100 -190 126 -187 q 19 -169 49 -194 q -17 -104 -11 -143 q -4 -21 -24 -65 q 63 57 15 24 z "},"ˇ":{"ha":326,"x_min":7,"x_max":319,"o":"m 7 878 l 126 878 l 186 775 l 244 878 l 319 878 l 214 694 l 113 694 l 7 878 z "},"`":{"ha":222,"x_min":7,"x_max":214,"o":"m 214 715 l 161 669 l 7 815 l 99 878 l 214 715 z "},"ˆ":{"ha":326,"x_min":7,"x_max":319,"o":"m 7 694 l 113 878 l 213 878 l 319 694 l 200 694 l 140 796 l 81 694 l 7 694 z "},"¨":{"ha":346,"x_min":11,"x_max":335,"o":"m 185 786 q 206 840 185 818 q 260 861 228 861 q 313 840 292 861 q 335 786 335 818 q 313 733 335 754 q 260 711 292 711 q 206 733 228 711 q 185 786 185 754 m 11 786 q 33 840 11 818 q 86 861 54 861 q 140 840 118 861 q 161 786 161 818 q 140 733 161 754 q 86 711 118 711 q 33 733 54 711 q 11 786 11 754 z "},"´":{"ha":224,"x_min":8,"x_max":215,"o":"m 215 828 l 61 682 l 8 726 l 124 890 l 215 828 z "},"¸":{"ha":58,"x_min":-43,"x_max":174,"o":"m 14 -75 q 24 -85 18 -81 q 38 -94 29 -89 q 57 -101 46 -99 q 78 -101 68 -104 q 92 -92 88 -99 q 94 -75 96 -85 q 79 -57 92 -65 q 51 -46 67 -49 q 19 -42 35 -43 q -15 -43 1 -42 l 22 33 l 53 21 l 39 -18 q 95 -17 69 -10 q 139 -41 121 -25 q 165 -79 157 -57 q 170 -123 174 -101 q 149 -163 167 -144 q 99 -190 132 -182 q 78 -194 88 -193 q 60 -196 68 -196 q 17 -190 36 -196 q -15 -175 -1 -183 q -43 -154 -31 -165 l 14 -75 z "},"Þ":{"ha":557,"x_min":21,"x_max":488,"o":"m 21 -1 l 54 67 l 54 892 q 21 960 54 935 l 239 960 q 204 892 208 935 l 204 836 q 240 837 218 838 q 288 829 261 836 q 344 807 314 822 q 404 764 374 792 q 465 676 444 726 q 486 574 485 626 q 471 468 488 521 q 422 372 454 415 q 373 322 401 344 q 315 283 344 300 q 257 255 286 267 q 204 236 228 243 l 204 67 l 239 -1 l 21 -1 m 204 331 q 274 384 235 349 q 338 475 314 419 q 351 560 354 515 q 328 643 347 606 q 277 706 310 681 q 204 731 244 731 l 204 331 z "},"þ":{"ha":606,"x_min":21,"x_max":538,"o":"m 21 -1 l 54 67 l 54 892 q 21 960 54 931 l 239 960 q 204 892 208 939 l 204 536 q 240 593 218 568 q 292 630 260 614 q 368 643 324 646 q 456 602 418 640 q 514 508 493 564 q 536 389 535 453 q 517 271 538 325 q 450 181 496 217 q 331 144 404 144 q 258 162 289 144 q 204 201 226 179 l 204 67 l 239 -1 l 21 -1 m 204 283 q 224 271 213 276 q 247 263 233 267 q 276 258 260 258 q 316 265 294 258 q 361 290 338 271 q 403 352 394 317 q 401 420 411 388 q 368 476 392 453 q 314 503 344 500 q 263 492 283 506 q 229 461 242 478 q 204 415 214 442 l 204 283 z "},"ß":{"ha":731,"x_min":17,"x_max":664,"o":"m 50 63 l 50 703 q 103 893 50 831 q 288 956 157 956 q 400 935 354 956 q 474 878 446 914 q 513 795 501 843 q 522 693 524 747 q 510 639 521 664 q 482 593 499 614 q 574 526 536 572 q 634 423 613 481 q 660 303 656 365 q 649 186 664 240 q 600 90 635 128 q 524 32 565 53 q 442 3 483 11 q 369 -6 400 -6 q 324 1 339 -6 q 304 18 308 8 q 304 36 300 28 q 314 46 308 44 q 450 127 406 79 q 504 226 494 175 q 496 326 514 276 q 447 412 478 375 q 379 469 417 449 q 311 481 342 489 l 299 514 q 343 574 324 540 q 372 642 358 601 q 383 732 386 682 q 376 786 382 760 q 358 833 369 813 q 328 865 346 853 q 288 876 311 876 q 249 861 265 875 q 221 815 232 847 q 205 733 210 783 q 200 607 200 682 l 200 63 l 235 -6 l 17 -6 l 50 63 z "},"ð":{"ha":569,"x_min":8,"x_max":563,"o":"m 147 490 q 183 497 167 496 q 215 499 200 499 q 279 488 253 499 q 324 465 306 478 q 268 557 300 513 q 203 640 236 601 l 136 560 l 92 613 l 157 690 q 125 724 140 710 q 99 747 110 738 q 75 768 86 760 l 182 936 q 213 917 196 929 q 247 892 228 907 q 290 856 267 878 l 372 956 l 421 901 l 342 807 q 383 761 363 786 q 463 649 425 714 q 525 511 501 585 q 556 358 549 438 q 542 200 563 278 q 501 108 528 147 q 440 44 475 69 q 363 7 404 19 q 279 -6 322 -6 q 181 10 229 -6 q 92 58 132 26 q 42 121 61 82 q 15 205 22 160 q 13 297 8 250 q 35 383 18 343 q 80 452 51 424 q 147 490 108 481 m 181 276 q 210 194 181 228 q 281 160 239 160 q 352 194 322 160 q 382 276 382 228 q 352 360 382 325 q 281 394 322 394 q 210 360 239 394 q 181 276 181 325 z "},"À":{"ha":588,"x_min":-12,"x_max":597,"o":"m 53 546 q 56 492 49 515 q 81 460 63 472 q 139 454 99 447 q 169 458 154 458 l 246 914 q 236 948 246 933 q 203 972 226 963 l 399 972 q 420 861 407 931 q 449 708 433 792 q 484 538 465 625 q 522 373 503 450 q 560 237 540 296 q 597 154 579 178 l 388 154 l 408 183 l 388 281 q 354 338 374 313 q 312 378 338 360 q 251 397 286 396 q 242 397 247 397 q 233 396 238 397 l 164 -18 l 190 -56 l 58 -56 q 74 -33 65 -49 q 90 -3 83 -18 l 153 360 q 74 332 110 332 q 17 356 39 332 q -8 414 -4 381 q 2 484 -12 447 q 53 546 17 521 m 367 388 l 293 750 l 244 458 q 367 388 325 446 m 382 1043 l 329 997 l 175 1143 l 267 1206 l 382 1043 z "},"Á":{"ha":588,"x_min":-12,"x_max":597,"o":"m 53 546 q 56 492 49 515 q 81 460 63 472 q 139 454 99 447 q 169 458 154 458 l 246 914 q 236 948 246 933 q 203 972 226 963 l 399 972 q 420 861 407 931 q 449 708 433 792 q 484 538 465 625 q 522 373 503 450 q 560 237 540 296 q 597 154 579 178 l 388 154 l 408 183 l 388 281 q 354 338 374 313 q 312 378 338 360 q 251 397 286 396 q 242 397 247 397 q 233 396 238 397 l 164 -18 l 190 -56 l 58 -56 q 74 -33 65 -49 q 90 -3 83 -18 l 153 360 q 74 332 110 332 q 17 356 39 332 q -8 414 -4 381 q 2 484 -12 447 q 53 546 17 521 m 367 388 l 293 750 l 244 458 q 367 388 325 446 m 468 1149 l 314 1003 l 261 1047 l 376 1211 l 468 1149 z "},"Â":{"ha":588,"x_min":-12,"x_max":597,"o":"m 53 546 q 56 492 49 515 q 81 460 63 472 q 139 454 99 447 q 169 458 154 458 l 246 914 q 236 948 246 933 q 203 972 226 963 l 399 972 q 420 861 407 931 q 449 708 433 792 q 484 538 465 625 q 522 373 503 450 q 560 237 540 296 q 597 154 579 178 l 388 154 l 408 183 l 388 281 q 354 338 374 313 q 312 378 338 360 q 251 397 286 396 q 242 397 247 397 q 233 396 238 397 l 164 -18 l 190 -56 l 58 -56 q 74 -33 65 -49 q 90 -3 83 -18 l 153 360 q 74 332 110 332 q 17 356 39 332 q -8 414 -4 381 q 2 484 -12 447 q 53 546 17 521 m 367 388 l 293 750 l 244 458 q 367 388 325 446 m 151 996 l 257 1179 l 357 1179 l 464 996 l 344 996 l 285 1097 l 225 996 l 151 996 z "},"Ã":{"ha":588,"x_min":-12,"x_max":597,"o":"m 53 546 q 56 492 49 515 q 81 460 63 472 q 139 454 99 447 q 169 458 154 458 l 246 914 q 236 948 246 933 q 203 972 226 963 l 399 972 q 420 861 407 931 q 449 708 433 792 q 484 538 465 625 q 522 373 503 450 q 560 237 540 296 q 597 154 579 178 l 388 154 l 408 183 l 388 281 q 354 338 374 313 q 312 378 338 360 q 251 397 286 396 q 242 397 247 397 q 233 396 238 397 l 164 -18 l 190 -56 l 58 -56 q 74 -33 65 -49 q 90 -3 83 -18 l 153 360 q 74 332 110 332 q 17 356 39 332 q -8 414 -4 381 q 2 484 -12 447 q 53 546 17 521 m 367 388 l 293 750 l 244 458 q 367 388 325 446 m 153 1149 q 178 1168 163 1160 q 208 1181 189 1175 q 251 1183 226 1186 q 301 1177 279 1181 q 342 1174 322 1174 q 374 1178 360 1174 q 400 1194 388 1182 l 468 1108 q 440 1078 456 1090 q 409 1058 428 1067 q 367 1054 390 1050 q 318 1064 340 1058 q 275 1069 296 1069 q 245 1065 260 1069 q 215 1047 231 1060 q 185 1090 197 1071 q 163 1125 172 1108 q 153 1149 153 1142 z "},"Ä":{"ha":588,"x_min":-12,"x_max":597,"o":"m 53 546 q 56 492 49 515 q 81 460 63 472 q 139 454 99 447 q 169 458 154 458 l 246 914 q 236 948 246 933 q 203 972 226 963 l 399 972 q 420 861 407 931 q 449 708 433 792 q 484 538 465 625 q 522 373 503 450 q 560 237 540 296 q 597 154 579 178 l 388 154 l 408 183 l 388 281 q 354 338 374 313 q 312 378 338 360 q 251 397 286 396 q 242 397 247 397 q 233 396 238 397 l 164 -18 l 190 -56 l 58 -56 q 74 -33 65 -49 q 90 -3 83 -18 l 153 360 q 74 332 110 332 q 17 356 39 332 q -8 414 -4 381 q 2 484 -12 447 q 53 546 17 521 m 367 388 l 293 750 l 244 458 q 367 388 325 446 m 313 1074 q 334 1127 313 1106 q 388 1149 356 1149 q 441 1127 419 1149 q 463 1074 463 1106 q 441 1020 463 1042 q 388 999 419 999 q 334 1020 356 999 q 313 1074 313 1042 m 139 1074 q 160 1127 139 1106 q 214 1149 182 1149 q 267 1127 246 1149 q 289 1074 289 1106 q 267 1020 289 1042 q 214 999 246 999 q 160 1020 182 999 q 139 1074 139 1042 z "},"Å":{"ha":588,"x_min":-12,"x_max":597,"o":"m 53 546 q 56 492 49 515 q 81 460 63 472 q 139 454 99 447 q 169 458 154 458 l 246 914 q 236 948 246 933 q 203 972 226 963 l 399 972 q 420 861 407 931 q 449 708 433 792 q 484 538 465 625 q 522 373 503 450 q 560 237 540 296 q 597 154 579 178 l 388 154 l 408 183 l 388 281 q 354 338 374 313 q 312 378 338 360 q 251 397 286 396 q 242 397 247 397 q 233 396 238 397 l 164 -18 l 190 -56 l 58 -56 q 74 -33 65 -49 q 90 -3 83 -18 l 153 360 q 74 332 110 332 q 17 356 39 332 q -8 414 -4 381 q 2 484 -12 447 q 53 546 17 521 m 367 388 l 293 750 l 244 458 q 367 388 325 446 m 172 1058 q 183 1113 172 1088 q 213 1158 194 1139 q 258 1188 232 1176 q 313 1199 283 1199 q 367 1188 342 1199 q 412 1158 393 1176 q 442 1113 431 1139 q 453 1058 453 1088 q 442 1004 453 1029 q 412 960 431 979 q 367 929 393 940 q 313 918 342 918 q 258 929 283 918 q 213 960 232 940 q 183 1004 194 979 q 172 1058 172 1029 m 313 1004 q 351 1019 336 1004 q 367 1058 367 1035 q 351 1098 367 1082 q 313 1114 336 1114 q 273 1098 289 1114 q 257 1058 257 1082 q 273 1019 257 1035 q 313 1004 289 1004 z "},"Æ":{"ha":1219,"x_min":-12,"x_max":1281,"o":"m 53 546 q 56 492 49 515 q 81 460 63 472 q 139 454 99 447 q 169 458 154 458 l 246 914 q 236 948 246 933 q 203 972 226 963 l 399 972 q 420 861 407 931 q 449 708 433 792 q 484 538 465 625 q 522 373 503 450 q 560 237 540 296 q 597 154 579 178 l 388 154 l 408 183 l 388 281 q 354 338 374 313 q 312 378 338 360 q 251 397 286 396 q 242 397 247 397 q 233 396 238 397 l 164 -18 l 190 -56 l 58 -56 q 74 -33 65 -49 q 90 -3 83 -18 l 153 360 q 74 332 110 332 q 17 356 39 332 q -8 414 -4 381 q 2 484 -12 447 q 53 546 17 521 m 367 388 l 293 750 l 244 458 q 367 388 325 446 m 585 972 l 1022 972 l 1022 754 q 994 818 1011 790 q 956 862 979 842 q 900 882 933 882 l 733 882 l 733 631 l 879 631 l 908 671 l 908 499 l 878 540 l 735 540 l 735 218 q 809 205 760 221 q 926 124 858 189 q 1097 -17 1026 26 q 1213 -54 1167 -60 q 1249 -40 1236 -51 q 1269 -18 1263 -29 q 1281 11 1278 -6 q 1258 -82 1275 -42 q 1213 -148 1243 -118 q 1128 -179 1182 -178 q 1032 -153 1074 -182 q 956 -85 990 -125 q 889 0 921 -44 q 822 75 857 44 q 753 121 788 104 q 692 144 719 138 q 648 153 665 151 q 629 154 631 154 l 542 154 l 585 213 l 585 881 q 554 871 569 878 q 526 851 539 864 q 497 817 513 838 q 471 772 482 797 q 457 715 460 747 q 464 643 454 683 q 470 577 475 604 q 454 532 465 550 q 422 500 442 513 q 429 531 431 515 q 420 560 429 544 q 383 592 411 576 q 328 651 344 614 q 313 730 311 688 q 335 815 315 772 q 391 893 356 858 q 476 950 426 928 q 585 972 525 972 z "},"Ç":{"ha":517,"x_min":13,"x_max":525,"o":"m 81 856 q 182 953 119 925 q 300 968 244 981 q 347 949 328 963 q 383 924 367 936 q 413 906 399 913 q 442 906 426 899 q 481 934 465 917 q 510 951 496 951 q 525 943 517 951 l 406 646 q 397 644 401 644 q 386 656 388 644 q 386 676 385 663 q 386 708 388 689 q 380 749 385 726 q 361 797 375 772 q 326 839 346 824 q 285 854 306 854 q 211 796 242 854 q 178 691 190 754 q 165 556 167 628 q 172 413 164 485 q 196 285 179 342 q 238 192 213 228 q 294 156 263 156 q 326 169 303 156 q 375 206 350 182 q 419 265 400 231 q 440 342 439 299 q 456 335 449 342 q 464 315 461 328 q 463 274 467 301 q 440 201 458 247 q 395 111 422 156 q 334 34 368 67 q 264 1 300 1 q 156 47 203 1 q 78 167 110 93 q 29 335 46 242 q 13 524 13 429 q 29 707 13 619 q 81 856 46 794 m 208 -75 q 218 -85 213 -81 q 232 -94 224 -89 q 251 -101 240 -99 q 272 -101 263 -104 q 286 -92 282 -99 q 288 -75 290 -85 q 274 -57 286 -65 q 245 -46 261 -49 q 214 -42 229 -43 q 179 -43 196 -42 l 217 33 l 247 21 l 233 -18 q 290 -17 264 -10 q 333 -41 315 -25 q 360 -79 351 -57 q 365 -123 368 -101 q 344 -163 361 -144 q 293 -190 326 -182 q 272 -194 282 -193 q 254 -196 263 -196 q 212 -190 231 -196 q 179 -175 193 -183 q 151 -154 164 -165 l 208 -75 z "},"Ð":{"ha":822,"x_min":-6,"x_max":822,"o":"m 94 525 q 99 547 100 535 q 90 578 99 558 q 115 567 97 575 q 148 544 132 560 q 172 504 164 529 q 168 440 179 479 q 140 309 147 371 q 151 201 132 247 q 220 128 169 154 q 368 103 271 101 q 494 145 440 106 q 584 244 549 185 q 638 374 619 304 q 656 507 656 444 q 636 646 657 579 q 582 767 615 713 q 506 863 549 822 q 419 922 464 903 l 419 213 l 463 154 l 228 154 l 269 213 l 269 914 q 228 972 268 958 l 453 972 q 589 938 526 972 q 699 844 651 903 q 776 711 746 786 q 815 554 807 636 q 806 391 822 472 q 743 239 789 310 q 558 65 665 121 q 343 6 451 8 q 213 24 275 4 q 103 84 150 44 q 26 182 56 124 q -4 315 -3 240 q 8 408 -6 374 q 38 463 21 442 q 71 496 54 483 q 94 525 88 508 m 189 460 l 189 610 l 523 610 l 523 460 l 189 460 z "},"Đ":{"ha":822,"x_min":-6,"x_max":822,"o":"m 94 525 q 99 547 100 535 q 90 578 99 558 q 115 567 97 575 q 148 544 132 560 q 172 504 164 529 q 168 440 179 479 q 140 309 147 371 q 151 201 132 247 q 220 128 169 154 q 368 103 271 101 q 494 145 440 106 q 584 244 549 185 q 638 374 619 304 q 656 507 656 444 q 636 646 657 579 q 582 767 615 713 q 506 863 549 822 q 419 922 464 903 l 419 213 l 463 154 l 228 154 l 269 213 l 269 914 q 228 972 268 958 l 453 972 q 589 938 526 972 q 699 844 651 903 q 776 711 746 786 q 815 554 807 636 q 806 391 822 472 q 743 239 789 310 q 558 65 665 121 q 343 6 451 8 q 213 24 275 4 q 103 84 150 44 q 26 182 56 124 q -4 315 -3 240 q 8 408 -6 374 q 38 463 21 442 q 71 496 54 483 q 94 525 88 508 m 189 460 l 189 610 l 523 610 l 523 460 l 189 460 z "},"È":{"ha":703,"x_min":-8,"x_max":961,"o":"m 265 935 l 703 935 l 703 717 q 675 781 692 753 q 637 824 660 804 q 581 844 614 844 l 414 844 l 414 593 l 560 593 l 589 633 l 589 461 l 558 503 l 415 503 l 415 181 q 490 167 440 183 q 607 86 539 151 q 777 -54 707 -11 q 893 -92 847 -97 q 930 -78 917 -89 q 950 -56 943 -67 q 961 -26 958 -43 q 939 -119 956 -79 q 893 -185 924 -156 q 808 -217 863 -215 q 713 -191 754 -219 q 636 -122 671 -162 q 569 -37 601 -82 q 503 38 538 7 q 434 83 468 67 q 373 107 400 100 q 328 115 346 114 q 310 117 311 117 l 222 117 l 265 175 l 265 843 q 235 833 250 840 q 207 814 219 826 q 178 780 193 800 q 151 735 163 760 q 138 678 140 710 q 144 606 135 646 q 151 540 156 567 q 135 494 146 513 q 103 463 122 475 q 110 493 111 478 q 101 523 110 507 q 64 554 92 539 q 8 613 25 576 q -6 692 -8 650 q 16 778 -4 735 q 72 856 36 821 q 156 913 107 890 q 265 935 206 935 m 451 1019 l 399 974 l 244 1119 l 336 1182 l 451 1019 z "},"É":{"ha":703,"x_min":-8,"x_max":961,"o":"m 265 935 l 703 935 l 703 717 q 675 781 692 753 q 637 824 660 804 q 581 844 614 844 l 414 844 l 414 593 l 560 593 l 589 633 l 589 461 l 558 503 l 415 503 l 415 181 q 490 167 440 183 q 607 86 539 151 q 777 -54 707 -11 q 893 -92 847 -97 q 930 -78 917 -89 q 950 -56 943 -67 q 961 -26 958 -43 q 939 -119 956 -79 q 893 -185 924 -156 q 808 -217 863 -215 q 713 -191 754 -219 q 636 -122 671 -162 q 569 -37 601 -82 q 503 38 538 7 q 434 83 468 67 q 373 107 400 100 q 328 115 346 114 q 310 117 311 117 l 222 117 l 265 175 l 265 843 q 235 833 250 840 q 207 814 219 826 q 178 780 193 800 q 151 735 163 760 q 138 678 140 710 q 144 606 135 646 q 151 540 156 567 q 135 494 146 513 q 103 463 122 475 q 110 493 111 478 q 101 523 110 507 q 64 554 92 539 q 8 613 25 576 q -6 692 -8 650 q 16 778 -4 735 q 72 856 36 821 q 156 913 107 890 q 265 935 206 935 m 507 1090 l 353 944 l 300 989 l 415 1153 l 507 1090 z "},"Ê":{"ha":703,"x_min":-8,"x_max":961,"o":"m 265 935 l 703 935 l 703 717 q 675 781 692 753 q 637 824 660 804 q 581 844 614 844 l 414 844 l 414 593 l 560 593 l 589 633 l 589 461 l 558 503 l 415 503 l 415 181 q 490 167 440 183 q 607 86 539 151 q 777 -54 707 -11 q 893 -92 847 -97 q 930 -78 917 -89 q 950 -56 943 -67 q 961 -26 958 -43 q 939 -119 956 -79 q 893 -185 924 -156 q 808 -217 863 -215 q 713 -191 754 -219 q 636 -122 671 -162 q 569 -37 601 -82 q 503 38 538 7 q 434 83 468 67 q 373 107 400 100 q 328 115 346 114 q 310 117 311 117 l 222 117 l 265 175 l 265 843 q 235 833 250 840 q 207 814 219 826 q 178 780 193 800 q 151 735 163 760 q 138 678 140 710 q 144 606 135 646 q 151 540 156 567 q 135 494 146 513 q 103 463 122 475 q 110 493 111 478 q 101 523 110 507 q 64 554 92 539 q 8 613 25 576 q -6 692 -8 650 q 16 778 -4 735 q 72 856 36 821 q 156 913 107 890 q 265 935 206 935 m 221 956 l 326 1139 l 426 1139 l 533 956 l 414 956 l 354 1057 l 294 956 l 221 956 z "},"Ë":{"ha":703,"x_min":-8,"x_max":961,"o":"m 265 935 l 703 935 l 703 717 q 675 781 692 753 q 637 824 660 804 q 581 844 614 844 l 414 844 l 414 593 l 560 593 l 589 633 l 589 461 l 558 503 l 415 503 l 415 181 q 490 167 440 183 q 607 86 539 151 q 777 -54 707 -11 q 893 -92 847 -97 q 930 -78 917 -89 q 950 -56 943 -67 q 961 -26 958 -43 q 939 -119 956 -79 q 893 -185 924 -156 q 808 -217 863 -215 q 713 -191 754 -219 q 636 -122 671 -162 q 569 -37 601 -82 q 503 38 538 7 q 434 83 468 67 q 373 107 400 100 q 328 115 346 114 q 310 117 311 117 l 222 117 l 265 175 l 265 843 q 235 833 250 840 q 207 814 219 826 q 178 780 193 800 q 151 735 163 760 q 138 678 140 710 q 144 606 135 646 q 151 540 156 567 q 135 494 146 513 q 103 463 122 475 q 110 493 111 478 q 101 523 110 507 q 64 554 92 539 q 8 613 25 576 q -6 692 -8 650 q 16 778 -4 735 q 72 856 36 821 q 156 913 107 890 q 265 935 206 935 m 386 1029 q 408 1083 386 1061 q 461 1104 429 1104 q 515 1083 493 1104 q 536 1029 536 1061 q 515 976 536 997 q 461 954 493 954 q 408 976 429 954 q 386 1029 386 997 m 213 1029 q 234 1083 213 1061 q 288 1104 256 1104 q 341 1083 319 1104 q 363 1029 363 1061 q 341 976 363 997 q 288 954 319 954 q 234 976 256 954 q 213 1029 213 997 z "},"Ì":{"ha":253,"x_min":8,"x_max":243,"o":"m 51 56 l 51 915 q 8 972 47 953 l 243 972 q 201 915 201 953 l 201 56 l 243 -1 l 8 -1 l 51 56 m 225 1058 l 172 1013 l 18 1158 l 110 1221 l 225 1058 z "},"Í":{"ha":253,"x_min":8,"x_max":257,"o":"m 51 56 l 51 915 q 8 972 47 953 l 243 972 q 201 915 201 953 l 201 56 l 243 -1 l 8 -1 l 51 56 m 257 1136 l 103 990 l 50 1035 l 165 1199 l 257 1136 z "},"Î":{"ha":253,"x_min":-26,"x_max":286,"o":"m 51 56 l 51 915 q 8 972 47 953 l 243 972 q 201 915 201 953 l 201 56 l 243 -1 l 8 -1 l 51 56 m -26 990 l 79 1174 l 179 1174 l 286 990 l 167 990 l 107 1092 l 47 990 l -26 990 z "},"Ï":{"ha":253,"x_min":-33,"x_max":290,"o":"m 51 56 l 51 915 q 8 972 47 953 l 243 972 q 201 915 201 953 l 201 56 l 243 -1 l 8 -1 l 51 56 m 140 1067 q 162 1120 140 1099 q 215 1142 183 1142 q 269 1120 247 1142 q 290 1067 290 1099 q 269 1013 290 1035 q 215 992 247 992 q 162 1013 183 992 q 140 1067 140 1035 m -33 1067 q -12 1120 -33 1099 q 42 1142 10 1142 q 95 1120 74 1142 q 117 1067 117 1099 q 95 1013 117 1035 q 42 992 74 992 q -12 1013 10 992 q -33 1067 -33 1035 z "},"Ł":{"ha":458,"x_min":-57,"x_max":747,"o":"m 240 972 q 213 947 224 961 q 199 913 201 933 l 199 183 q 230 183 211 185 q 273 171 249 181 q 327 141 297 161 q 390 86 357 121 q 560 -60 490 -15 q 676 -99 631 -106 q 714 -85 700 -96 q 735 -64 728 -75 q 747 -35 743 -50 q 724 -131 742 -87 q 677 -197 708 -167 q 592 -231 646 -228 q 496 -203 538 -233 q 419 -131 454 -174 q 353 -42 385 -89 q 286 35 321 4 q 217 82 251 65 q 156 107 183 99 q 112 117 129 115 q 93 118 94 118 l 6 118 l 49 179 l 49 913 q 6 972 40 951 l 240 972 m -57 297 l -57 447 l 355 447 l 355 297 l -57 297 z "},"Ñ":{"ha":678,"x_min":6,"x_max":674,"o":"m 51 218 l 51 910 q 6 972 50 956 l 228 972 l 551 171 l 551 756 q 536 794 549 779 q 506 818 524 808 l 674 818 q 642 790 654 804 q 626 756 629 775 l 626 64 l 674 1 l 471 1 l 126 850 l 126 218 l 174 154 l 6 154 l 51 218 m 182 1135 q 207 1154 192 1146 q 237 1167 218 1161 q 281 1169 256 1172 q 330 1163 308 1167 q 371 1160 351 1160 q 403 1164 389 1160 q 429 1181 417 1168 l 497 1094 q 469 1064 485 1076 q 438 1044 457 1053 q 396 1040 419 1036 q 347 1050 369 1044 q 304 1056 325 1056 q 274 1051 289 1056 q 244 1033 260 1046 q 214 1076 226 1057 q 192 1111 201 1094 q 182 1135 182 1128 z "},"Ò":{"ha":713,"x_min":7,"x_max":704,"o":"m 7 486 q 34 675 7 586 q 108 830 61 764 q 219 934 156 896 q 356 972 283 972 q 492 934 428 972 q 603 830 556 896 q 677 675 650 764 q 704 486 704 586 q 677 297 704 386 q 603 143 650 208 q 492 40 556 78 q 356 1 428 1 q 219 40 283 1 q 108 143 156 78 q 34 297 61 208 q 7 486 7 386 m 192 486 q 213 327 196 401 q 255 197 229 253 q 313 110 281 142 q 378 78 344 78 q 441 110 413 78 q 489 197 469 142 q 517 327 508 253 q 521 486 525 401 q 499 646 517 571 q 457 776 482 721 q 400 864 432 832 q 333 896 368 896 q 272 864 300 896 q 224 776 243 832 q 196 646 204 721 q 192 486 188 571 m 460 1028 l 407 982 l 253 1128 l 344 1190 l 460 1028 z "},"Ó":{"ha":713,"x_min":7,"x_max":704,"o":"m 7 486 q 34 675 7 586 q 108 830 61 764 q 219 934 156 896 q 356 972 283 972 q 492 934 428 972 q 603 830 556 896 q 677 675 650 764 q 704 486 704 586 q 677 297 704 386 q 603 143 650 208 q 492 40 556 78 q 356 1 428 1 q 219 40 283 1 q 108 143 156 78 q 34 297 61 208 q 7 486 7 386 m 192 486 q 213 327 196 401 q 255 197 229 253 q 313 110 281 142 q 378 78 344 78 q 441 110 413 78 q 489 197 469 142 q 517 327 508 253 q 521 486 525 401 q 499 646 517 571 q 457 776 482 721 q 400 864 432 832 q 333 896 368 896 q 272 864 300 896 q 224 776 243 832 q 196 646 204 721 q 192 486 188 571 m 469 1129 l 315 983 l 263 1028 l 378 1192 l 469 1129 z "},"Ô":{"ha":713,"x_min":7,"x_max":704,"o":"m 7 486 q 34 675 7 586 q 108 830 61 764 q 219 934 156 896 q 356 972 283 972 q 492 934 428 972 q 603 830 556 896 q 677 675 650 764 q 704 486 704 586 q 677 297 704 386 q 603 143 650 208 q 492 40 556 78 q 356 1 428 1 q 219 40 283 1 q 108 143 156 78 q 34 297 61 208 q 7 486 7 386 m 192 486 q 213 327 196 401 q 255 197 229 253 q 313 110 281 142 q 378 78 344 78 q 441 110 413 78 q 489 197 469 142 q 517 327 508 253 q 521 486 525 401 q 499 646 517 571 q 457 776 482 721 q 400 864 432 832 q 333 896 368 896 q 272 864 300 896 q 224 776 243 832 q 196 646 204 721 q 192 486 188 571 m 200 990 l 306 1174 l 406 1174 l 513 990 l 393 990 l 333 1092 l 274 990 l 200 990 z "},"Õ":{"ha":713,"x_min":7,"x_max":704,"o":"m 7 486 q 34 675 7 586 q 108 830 61 764 q 219 934 156 896 q 356 972 283 972 q 492 934 428 972 q 603 830 556 896 q 677 675 650 764 q 704 486 704 586 q 677 297 704 386 q 603 143 650 208 q 492 40 556 78 q 356 1 428 1 q 219 40 283 1 q 108 143 156 78 q 34 297 61 208 q 7 486 7 386 m 192 486 q 213 327 196 401 q 255 197 229 253 q 313 110 281 142 q 378 78 344 78 q 441 110 413 78 q 489 197 469 142 q 517 327 508 253 q 521 486 525 401 q 499 646 517 571 q 457 776 482 721 q 400 864 432 832 q 333 896 368 896 q 272 864 300 896 q 224 776 243 832 q 196 646 204 721 q 192 486 188 571 m 199 1135 q 224 1154 208 1146 q 253 1167 235 1161 q 297 1169 272 1172 q 347 1163 325 1167 q 388 1160 368 1160 q 419 1164 406 1160 q 446 1181 433 1168 l 514 1094 q 486 1064 501 1076 q 455 1044 474 1053 q 413 1040 436 1036 q 364 1050 386 1044 q 321 1056 342 1056 q 291 1051 306 1056 q 261 1033 276 1046 q 231 1076 243 1057 q 208 1111 218 1094 q 199 1135 199 1128 z "},"Ö":{"ha":713,"x_min":7,"x_max":704,"o":"m 7 486 q 34 675 7 586 q 108 830 61 764 q 219 934 156 896 q 356 972 283 972 q 492 934 428 972 q 603 830 556 896 q 677 675 650 764 q 704 486 704 586 q 677 297 704 386 q 603 143 650 208 q 492 40 556 78 q 356 1 428 1 q 219 40 283 1 q 108 143 156 78 q 34 297 61 208 q 7 486 7 386 m 192 486 q 213 327 196 401 q 255 197 229 253 q 313 110 281 142 q 378 78 344 78 q 441 110 413 78 q 489 197 469 142 q 517 327 508 253 q 521 486 525 401 q 499 646 517 571 q 457 776 482 721 q 400 864 432 832 q 333 896 368 896 q 272 864 300 896 q 224 776 243 832 q 196 646 204 721 q 192 486 188 571 m 363 1067 q 384 1120 363 1099 q 438 1142 406 1142 q 491 1120 469 1142 q 513 1067 513 1099 q 491 1013 513 1035 q 438 992 469 992 q 384 1013 406 992 q 363 1067 363 1035 m 189 1067 q 210 1120 189 1099 q 264 1142 232 1142 q 317 1120 296 1142 q 339 1067 339 1099 q 317 1013 339 1035 q 264 992 296 992 q 210 1013 232 992 q 189 1067 189 1035 z "},"Ø":{"ha":713,"x_min":7,"x_max":704,"o":"m 7 486 q 34 675 7 586 q 108 830 61 764 q 219 934 156 896 q 356 972 283 972 q 492 934 428 972 q 603 830 556 896 q 677 675 650 764 q 704 486 704 586 q 677 297 704 386 q 603 143 650 208 q 492 40 556 78 q 356 1 428 1 q 219 40 283 1 q 108 143 156 78 q 34 297 61 208 q 7 486 7 386 m 192 486 q 213 327 196 401 q 255 197 229 253 q 313 110 281 142 q 378 78 344 78 q 441 110 413 78 q 489 197 469 142 q 517 327 508 253 q 521 486 525 401 q 499 646 517 571 q 457 776 482 721 q 400 864 432 832 q 333 896 368 896 q 272 864 300 896 q 224 776 243 832 q 196 646 204 721 q 192 486 188 571 m 146 54 l 421 938 l 401 976 l 594 976 l 563 913 l 292 38 l 311 -3 l 118 -3 l 146 54 z "},"Œ":{"ha":1415,"x_min":7,"x_max":1503,"o":"m 7 486 q 34 675 7 586 q 108 830 61 764 q 219 934 156 896 q 356 972 283 972 q 492 934 428 972 q 603 830 556 896 q 677 675 650 764 q 704 486 704 586 q 677 297 704 386 q 603 143 650 208 q 492 40 556 78 q 356 1 428 1 q 219 40 283 1 q 108 143 156 78 q 34 297 61 208 q 7 486 7 386 m 192 486 q 213 327 196 401 q 255 197 229 253 q 313 110 281 142 q 378 78 344 78 q 441 110 413 78 q 489 197 469 142 q 517 327 508 253 q 521 486 525 401 q 499 646 517 571 q 457 776 482 721 q 400 864 432 832 q 333 896 368 896 q 272 864 300 896 q 224 776 243 832 q 196 646 204 721 q 192 486 188 571 m 807 935 l 1244 935 l 1244 717 q 1217 781 1233 753 q 1178 824 1201 804 q 1122 844 1156 844 l 956 844 l 956 593 l 1101 593 l 1131 633 l 1131 461 l 1100 503 l 957 503 l 957 181 q 1031 167 982 183 q 1149 86 1081 151 q 1319 -54 1249 -11 q 1435 -92 1389 -97 q 1472 -78 1458 -89 q 1492 -56 1485 -67 q 1503 -26 1500 -43 q 1481 -119 1497 -79 q 1435 -185 1465 -156 q 1350 -217 1404 -215 q 1254 -191 1296 -219 q 1178 -122 1213 -162 q 1111 -37 1143 -82 q 1044 38 1079 7 q 976 83 1010 67 q 915 107 942 100 q 870 115 888 114 q 851 117 853 117 l 764 117 l 807 175 l 807 843 q 776 833 792 840 q 749 814 761 826 q 719 780 735 800 q 693 735 704 760 q 679 678 682 710 q 686 606 676 646 q 692 540 697 567 q 676 494 688 513 q 644 463 664 475 q 651 493 653 478 q 642 523 651 507 q 606 554 633 539 q 550 613 567 576 q 535 692 533 650 q 558 778 538 735 q 613 856 578 821 q 698 913 649 890 q 807 935 747 935 z "},"Š":{"ha":551,"x_min":4,"x_max":565,"o":"m 38 408 q 49 444 47 428 q 33 481 50 461 q 82 474 58 483 q 123 446 101 467 q 157 383 144 425 q 172 292 171 342 q 181 201 174 243 q 208 131 188 158 q 282 107 229 104 q 359 140 335 110 q 388 210 383 169 q 382 295 393 251 q 351 368 371 339 q 298 435 333 397 q 223 515 263 474 q 146 596 183 556 q 85 671 108 636 q 52 748 61 706 q 51 831 43 790 q 86 904 60 871 q 160 956 113 938 q 228 969 197 969 q 273 961 254 969 q 306 944 292 953 q 329 928 319 935 q 349 924 339 921 q 372 934 358 926 q 397 950 385 942 q 417 965 408 958 q 429 972 426 972 q 390 846 443 972 q 347 747 363 782 q 324 711 332 711 q 317 734 315 711 q 319 790 319 757 q 303 845 318 824 q 256 865 288 867 q 228 853 240 864 q 216 821 217 842 q 228 770 215 800 q 278 703 242 740 q 359 617 313 667 q 449 515 406 568 q 543 332 521 425 q 540 165 565 239 q 447 44 515 90 q 268 1 378 -3 q 135 42 193 4 q 45 140 78 81 q 8 269 13 199 q 38 408 4 340 m 119 1201 l 239 1201 l 299 1099 l 357 1201 l 432 1201 l 326 1018 l 225 1018 l 119 1201 z "},"Ù":{"ha":613,"x_min":0,"x_max":611,"o":"m 0 972 l 235 972 q 208 950 219 963 q 193 918 197 938 l 193 301 q 226 208 193 249 q 310 154 260 167 q 326 152 318 153 q 343 151 335 151 q 361 152 353 151 q 378 154 369 153 q 461 208 428 167 q 494 301 494 249 l 494 783 q 454 836 489 815 l 611 836 q 569 782 576 819 l 569 264 q 549 162 569 210 q 492 78 528 114 q 409 22 457 43 q 306 1 361 1 q 203 22 251 1 q 120 78 156 43 q 64 162 85 114 q 43 264 43 210 l 43 918 q 0 972 38 946 m 410 1021 l 357 975 l 203 1121 l 294 1183 l 410 1021 z "},"Ú":{"ha":613,"x_min":0,"x_max":611,"o":"m 0 972 l 235 972 q 208 950 219 963 q 193 918 197 938 l 193 301 q 226 208 193 249 q 310 154 260 167 q 326 152 318 153 q 343 151 335 151 q 361 152 353 151 q 378 154 369 153 q 461 208 428 167 q 494 301 494 249 l 494 783 q 454 836 489 815 l 611 836 q 569 782 576 819 l 569 264 q 549 162 569 210 q 492 78 528 114 q 409 22 457 43 q 306 1 361 1 q 203 22 251 1 q 120 78 156 43 q 64 162 85 114 q 43 264 43 210 l 43 918 q 0 972 38 946 m 486 1131 l 332 985 l 279 1029 l 394 1193 l 486 1131 z "},"Û":{"ha":613,"x_min":0,"x_max":611,"o":"m 0 972 l 235 972 q 208 950 219 963 q 193 918 197 938 l 193 301 q 226 208 193 249 q 310 154 260 167 q 326 152 318 153 q 343 151 335 151 q 361 152 353 151 q 378 154 369 153 q 461 208 428 167 q 494 301 494 249 l 494 783 q 454 836 489 815 l 611 836 q 569 782 576 819 l 569 264 q 549 162 569 210 q 492 78 528 114 q 409 22 457 43 q 306 1 361 1 q 203 22 251 1 q 120 78 156 43 q 64 162 85 114 q 43 264 43 210 l 43 918 q 0 972 38 946 m 172 990 l 278 1174 l 378 1174 l 485 990 l 365 990 l 306 1092 l 246 990 l 172 990 z "},"Ü":{"ha":613,"x_min":0,"x_max":611,"o":"m 0 972 l 235 972 q 208 950 219 963 q 193 918 197 938 l 193 301 q 226 208 193 249 q 310 154 260 167 q 326 152 318 153 q 343 151 335 151 q 361 152 353 151 q 378 154 369 153 q 461 208 428 167 q 494 301 494 249 l 494 783 q 454 836 489 815 l 611 836 q 569 782 576 819 l 569 264 q 549 162 569 210 q 492 78 528 114 q 409 22 457 43 q 306 1 361 1 q 203 22 251 1 q 120 78 156 43 q 64 162 85 114 q 43 264 43 210 l 43 918 q 0 972 38 946 m 353 1061 q 374 1115 353 1093 q 428 1136 396 1136 q 481 1115 460 1136 q 503 1061 503 1093 q 481 1008 503 1029 q 428 986 460 986 q 374 1008 396 986 q 353 1061 353 1029 m 179 1061 q 201 1115 179 1093 q 254 1136 222 1136 q 308 1115 286 1136 q 329 1061 329 1093 q 308 1008 329 1029 q 254 986 286 986 q 201 1008 222 986 q 179 1061 179 1029 z "},"Ÿ":{"ha":506,"x_min":-26,"x_max":556,"o":"m 186 972 q 158 935 163 954 l 339 524 l 446 783 q 419 818 444 808 l 556 818 q 508 754 526 796 q 362 398 435 575 q 215 40 289 221 l 244 1 l 108 1 l 143 47 l 267 349 l 18 911 q -26 972 3 947 l 186 972 m 301 1061 q 323 1115 301 1093 q 376 1136 344 1136 q 430 1115 408 1136 q 451 1061 451 1093 q 430 1008 451 1029 q 376 986 408 986 q 323 1008 344 986 q 301 1061 301 1029 m 128 1061 q 149 1115 128 1093 q 203 1136 171 1136 q 256 1115 235 1136 q 278 1061 278 1093 q 256 1008 278 1029 q 203 986 235 986 q 149 1008 171 986 q 128 1061 128 1029 z "},"Ý":{"ha":506,"x_min":-26,"x_max":556,"o":"m 186 972 q 158 935 163 954 l 339 524 l 446 783 q 419 818 444 808 l 556 818 q 508 754 526 796 q 362 398 435 575 q 215 40 289 221 l 244 1 l 108 1 l 143 47 l 267 349 l 18 911 q -26 972 3 947 l 186 972 m 451 1121 l 297 975 l 244 1019 l 360 1183 l 451 1121 z "},"Ž":{"ha":506,"x_min":-4,"x_max":824,"o":"m 354 875 l 161 875 q 105 853 128 875 q 67 806 82 832 q 39 735 50 774 l 39 972 l 549 972 l 165 124 q 324 89 251 117 q 461 22 397 61 q 582 -65 525 -18 q 692 -156 639 -111 q 717 -165 703 -165 q 738 -158 728 -165 q 754 -142 747 -151 q 765 -122 761 -132 q 768 -106 768 -112 q 782 -79 765 -90 q 818 -67 799 -68 q 807 -81 811 -71 q 804 -101 804 -87 q 813 -135 804 -115 q 818 -190 824 -158 q 790 -246 813 -221 q 710 -281 757 -281 q 605 -251 661 -281 q 493 -181 549 -221 q 389 -101 438 -142 q 308 -39 340 -60 q 149 47 229 11 q -4 82 69 82 l 354 875 m 147 1193 l 267 1193 l 326 1090 l 385 1193 l 460 1193 l 354 1010 l 253 1010 l 147 1193 z "},"à":{"ha":501,"x_min":-12,"x_max":539,"o":"m -12 0 q 7 25 -1 11 q 21 57 15 39 l 249 753 l 268 753 l 510 0 q 539 -50 521 -29 l 414 -50 q 436 -12 429 -36 l 379 169 l 250 204 l 194 38 q 217 0 199 14 l -12 0 m 264 247 l 363 219 l 310 388 l 264 247 m 340 818 l 288 772 l 133 918 l 225 981 l 340 818 z "},"á":{"ha":501,"x_min":-12,"x_max":539,"o":"m -12 0 q 7 25 -1 11 q 21 57 15 39 l 249 753 l 268 753 l 510 0 q 539 -50 521 -29 l 414 -50 q 436 -12 429 -36 l 379 169 l 250 204 l 194 38 q 217 0 199 14 l -12 0 m 264 247 l 363 219 l 310 388 l 264 247 m 379 924 l 225 778 l 172 822 l 288 986 l 379 924 z "},"â":{"ha":501,"x_min":-12,"x_max":539,"o":"m -12 0 q 7 25 -1 11 q 21 57 15 39 l 249 753 l 268 753 l 510 0 q 539 -50 521 -29 l 414 -50 q 436 -12 429 -36 l 379 169 l 250 204 l 194 38 q 217 0 199 14 l -12 0 m 264 247 l 363 219 l 310 388 l 264 247 m 104 758 l 210 942 l 310 942 l 417 758 l 297 758 l 238 860 l 178 758 l 104 758 z "},"ã":{"ha":501,"x_min":-12,"x_max":539,"o":"m -12 0 q 7 25 -1 11 q 21 57 15 39 l 249 753 l 268 753 l 510 0 q 539 -50 521 -29 l 414 -50 q 436 -12 429 -36 l 379 169 l 250 204 l 194 38 q 217 0 199 14 l -12 0 m 264 247 l 363 219 l 310 388 l 264 247 m 93 921 q 118 940 103 932 q 148 953 129 947 q 192 956 167 958 q 241 949 219 953 q 282 946 263 946 q 314 950 300 946 q 340 967 328 954 l 408 881 q 381 850 396 863 q 349 831 368 839 q 307 826 331 822 q 258 836 281 831 q 215 842 236 842 q 185 837 200 842 q 156 819 171 832 q 125 863 138 843 q 103 897 113 881 q 93 921 93 914 z "},"ä":{"ha":501,"x_min":-12,"x_max":539,"o":"m -12 0 q 7 25 -1 11 q 21 57 15 39 l 249 753 l 268 753 l 510 0 q 539 -50 521 -29 l 414 -50 q 436 -12 429 -36 l 379 169 l 250 204 l 194 38 q 217 0 199 14 l -12 0 m 264 247 l 363 219 l 310 388 l 264 247 m 272 840 q 294 894 272 872 q 347 915 315 915 q 401 894 379 915 q 422 840 422 872 q 401 787 422 808 q 347 765 379 765 q 294 787 315 765 q 272 840 272 808 m 99 840 q 120 894 99 872 q 174 915 142 915 q 227 894 206 915 q 249 840 249 872 q 227 787 249 808 q 174 765 206 765 q 120 787 142 765 q 99 840 99 808 z "},"å":{"ha":501,"x_min":-12,"x_max":539,"o":"m -12 0 q 7 25 -1 11 q 21 57 15 39 l 249 753 l 268 753 l 510 0 q 539 -50 521 -29 l 414 -50 q 436 -12 429 -36 l 379 169 l 250 204 l 194 38 q 217 0 199 14 l -12 0 m 264 247 l 363 219 l 310 388 l 264 247 m 133 835 q 144 890 133 864 q 174 934 156 915 q 219 964 193 953 q 274 975 244 975 q 328 964 303 975 q 373 934 354 953 q 403 890 392 915 q 414 835 414 864 q 403 781 414 806 q 373 736 392 756 q 328 706 354 717 q 274 694 303 694 q 219 706 244 694 q 174 736 193 717 q 144 781 156 756 q 133 835 133 806 m 274 781 q 313 796 297 781 q 328 835 328 811 q 313 874 328 858 q 274 890 297 890 q 234 874 250 890 q 218 835 218 858 q 234 796 218 811 q 274 781 250 781 z "},"æ":{"ha":958,"x_min":-12,"x_max":878,"o":"m -12 0 q 7 25 -1 11 q 21 57 15 39 l 249 753 l 268 753 l 510 0 q 539 -50 521 -29 l 414 -50 q 436 -12 429 -36 l 379 169 l 250 204 l 194 38 q 217 0 199 14 l -12 0 m 264 247 l 363 219 l 310 388 l 264 247 m 475 60 l 475 696 l 442 754 l 878 754 q 867 671 875 713 q 849 592 860 635 q 818 513 838 550 q 813 568 817 540 q 805 618 810 592 q 792 664 800 644 l 625 664 l 625 415 l 701 415 l 735 474 l 735 282 l 701 340 l 625 340 l 625 92 l 792 92 q 805 138 800 113 q 813 188 810 164 q 818 243 817 215 q 849 164 838 207 q 867 85 860 121 q 878 1 875 43 l 442 1 l 475 60 z "},"ç":{"ha":407,"x_min":14,"x_max":404,"o":"m 69 642 q 143 722 97 692 q 238 753 189 753 q 297 740 268 753 q 349 696 325 726 l 404 753 l 338 536 q 324 599 333 571 q 301 644 315 622 q 264 672 288 667 q 227 654 243 678 q 200 588 211 631 q 184 490 189 546 q 179 376 179 435 q 184 263 179 318 q 200 165 189 207 q 227 98 211 122 q 264 79 243 74 q 301 108 288 86 q 324 153 315 129 q 338 215 333 181 l 404 0 l 349 57 q 297 13 325 26 q 236 -1 268 -1 q 142 29 188 -1 q 69 111 97 60 q 28 233 42 163 q 14 376 14 303 q 28 520 14 450 q 69 642 42 590 m 210 -85 q 219 -94 214 -90 q 233 -103 225 -99 q 253 -111 242 -108 q 274 -111 264 -114 q 288 -101 283 -108 q 290 -85 292 -94 q 275 -67 288 -75 q 247 -56 263 -58 q 215 -51 231 -53 q 181 -53 197 -51 l 218 24 l 249 11 l 235 -28 q 291 -27 265 -19 q 335 -51 317 -35 q 361 -89 353 -67 q 366 -133 369 -111 q 345 -173 363 -154 q 294 -200 328 -192 q 274 -204 283 -203 q 256 -206 264 -206 q 213 -199 232 -206 q 181 -185 194 -193 q 153 -164 165 -175 l 210 -85 z "},"đ":{"ha":478,"x_min":-11,"x_max":486,"o":"m 193 753 q 381 706 314 753 q 467 585 447 658 q 462 422 486 511 q 378 250 438 333 q 225 99 318 167 q 14 0 132 31 q 28 27 21 14 q 43 53 36 40 l 43 694 q 10 753 39 731 l 193 753 m 193 675 l 193 158 q 238 213 217 182 q 275 283 258 244 q 310 410 304 350 q 302 519 315 469 q 260 609 289 569 q 193 675 232 649 m -11 353 l -11 503 l 264 503 l 264 353 l -11 353 z "},"è":{"ha":457,"x_min":11,"x_max":447,"o":"m 44 58 l 44 694 l 11 753 l 447 753 q 436 669 444 711 q 418 591 429 633 q 388 511 407 549 q 382 567 386 539 q 374 617 379 590 q 361 663 369 643 l 194 663 l 194 414 l 271 414 l 304 472 l 304 281 l 271 339 l 194 339 l 194 90 l 361 90 q 374 137 369 111 q 382 186 379 163 q 388 242 386 214 q 418 163 407 206 q 436 83 429 119 q 447 0 444 42 l 11 0 l 44 58 m 333 810 l 281 764 l 126 910 l 218 972 l 333 810 z "},"é":{"ha":457,"x_min":11,"x_max":447,"o":"m 44 58 l 44 694 l 11 753 l 447 753 q 436 669 444 711 q 418 591 429 633 q 388 511 407 549 q 382 567 386 539 q 374 617 379 590 q 361 663 369 643 l 194 663 l 194 414 l 271 414 l 304 472 l 304 281 l 271 339 l 194 339 l 194 90 l 361 90 q 374 137 369 111 q 382 186 379 163 q 388 242 386 214 q 418 163 407 206 q 436 83 429 119 q 447 0 444 42 l 11 0 l 44 58 m 340 910 l 186 764 l 133 808 l 249 972 l 340 910 z "},"ê":{"ha":457,"x_min":11,"x_max":447,"o":"m 44 58 l 44 694 l 11 753 l 447 753 q 436 669 444 711 q 418 591 429 633 q 388 511 407 549 q 382 567 386 539 q 374 617 379 590 q 361 663 369 643 l 194 663 l 194 414 l 271 414 l 304 472 l 304 281 l 271 339 l 194 339 l 194 90 l 361 90 q 374 137 369 111 q 382 186 379 163 q 388 242 386 214 q 418 163 407 206 q 436 83 429 119 q 447 0 444 42 l 11 0 l 44 58 m 74 776 l 179 960 l 279 960 l 386 776 l 267 776 l 207 878 l 147 776 l 74 776 z "},"ë":{"ha":457,"x_min":11,"x_max":447,"o":"m 44 58 l 44 694 l 11 753 l 447 753 q 436 669 444 711 q 418 591 429 633 q 388 511 407 549 q 382 567 386 539 q 374 617 379 590 q 361 663 369 643 l 194 663 l 194 414 l 271 414 l 304 472 l 304 281 l 271 339 l 194 339 l 194 90 l 361 90 q 374 137 369 111 q 382 186 379 163 q 388 242 386 214 q 418 163 407 206 q 436 83 429 119 q 447 0 444 42 l 11 0 l 44 58 m 229 850 q 251 903 229 882 q 304 925 272 925 q 358 903 336 925 q 379 850 379 882 q 358 797 379 818 q 304 775 336 775 q 251 797 272 775 q 229 850 229 818 m 56 850 q 77 903 56 882 q 131 925 99 925 q 184 903 163 925 q 206 850 206 882 q 184 797 206 818 q 131 775 163 775 q 77 797 99 775 q 56 850 56 818 z "},"ì":{"ha":238,"x_min":4,"x_max":228,"o":"m 43 60 l 43 694 q 10 753 39 735 l 228 753 q 193 694 197 736 l 193 60 l 228 0 l 10 0 l 43 60 m 211 821 l 158 775 l 4 921 l 96 983 l 211 821 z "},"í":{"ha":238,"x_min":10,"x_max":233,"o":"m 43 60 l 43 694 q 10 753 39 735 l 228 753 q 193 694 197 736 l 193 60 l 228 0 l 10 0 l 43 60 m 233 910 l 79 764 l 26 808 l 142 972 l 233 910 z "},"î":{"ha":238,"x_min":-42,"x_max":271,"o":"m 43 60 l 43 694 q 10 753 39 735 l 228 753 q 193 694 197 736 l 193 60 l 228 0 l 10 0 l 43 60 m -42 776 l 64 960 l 164 960 l 271 776 l 151 776 l 92 878 l 32 776 l -42 776 z "},"ï":{"ha":238,"x_min":-40,"x_max":283,"o":"m 43 60 l 43 694 q 10 753 39 735 l 228 753 q 193 694 197 736 l 193 60 l 228 0 l 10 0 l 43 60 m 133 878 q 155 931 133 910 q 208 953 176 953 q 262 931 240 953 q 283 878 283 910 q 262 824 283 846 q 208 803 240 803 q 155 824 176 803 q 133 878 133 846 m -40 878 q -19 931 -40 910 q 35 953 3 953 q 88 931 67 953 q 110 878 110 910 q 88 824 110 846 q 35 803 67 803 q -19 824 3 803 q -40 878 -40 846 z "},"ł":{"ha":475,"x_min":4,"x_max":482,"o":"m 8 753 l 226 753 q 192 694 193 733 l 192 89 l 396 89 q 409 136 404 110 q 417 186 414 163 q 421 242 419 214 q 452 163 440 206 q 471 83 464 119 q 482 0 478 42 l 42 0 l 42 694 q 8 753 42 732 m 4 301 l 4 451 l 279 451 l 279 301 l 4 301 z "},"ñ":{"ha":622,"x_min":10,"x_max":611,"o":"m 193 753 l 428 192 l 428 694 q 393 753 424 739 l 611 753 q 578 694 581 733 l 578 58 l 611 0 l 426 0 l 193 558 l 193 8 l 228 -50 l 10 -50 l 43 8 l 43 694 l 10 753 l 193 753 m 154 921 q 179 940 164 932 q 209 953 190 947 q 253 956 228 958 q 302 949 281 953 q 343 946 324 946 q 375 950 361 946 q 401 967 389 954 l 469 881 q 442 850 457 863 q 410 831 429 839 q 368 826 392 822 q 319 836 342 831 q 276 842 297 842 q 247 837 261 842 q 217 819 232 832 q 186 863 199 843 q 164 897 174 881 q 154 921 154 914 z "},"ò":{"ha":478,"x_min":11,"x_max":489,"o":"m 11 376 q 30 523 11 454 q 81 643 49 592 q 157 724 114 694 q 250 753 200 753 q 343 724 300 753 q 419 643 386 694 q 470 523 451 592 q 489 376 489 454 q 470 230 489 299 q 419 110 451 161 q 343 30 386 60 q 250 0 300 0 q 157 30 200 0 q 81 110 114 60 q 30 230 49 161 q 11 376 11 299 m 250 47 q 288 73 269 47 q 319 144 306 99 q 340 249 332 189 q 347 376 347 308 q 340 504 347 444 q 319 609 332 564 q 288 680 306 654 q 250 706 269 706 q 212 680 229 706 q 182 609 194 654 q 162 504 169 564 q 154 376 154 444 q 162 249 154 308 q 182 144 169 189 q 212 73 194 99 q 250 47 229 47 m 336 810 l 283 764 l 129 910 l 221 972 l 336 810 z "},"ó":{"ha":478,"x_min":11,"x_max":489,"o":"m 11 376 q 30 523 11 454 q 81 643 49 592 q 157 724 114 694 q 250 753 200 753 q 343 724 300 753 q 419 643 386 694 q 470 523 451 592 q 489 376 489 454 q 470 230 489 299 q 419 110 451 161 q 343 30 386 60 q 250 0 300 0 q 157 30 200 0 q 81 110 114 60 q 30 230 49 161 q 11 376 11 299 m 250 47 q 288 73 269 47 q 319 144 306 99 q 340 249 332 189 q 347 376 347 308 q 340 504 347 444 q 319 609 332 564 q 288 680 306 654 q 250 706 269 706 q 212 680 229 706 q 182 609 194 654 q 162 504 169 564 q 154 376 154 444 q 162 249 154 308 q 182 144 169 189 q 212 73 194 99 q 250 47 229 47 m 372 910 l 218 764 l 165 808 l 281 972 l 372 910 z "},"ô":{"ha":478,"x_min":11,"x_max":489,"o":"m 11 376 q 30 523 11 454 q 81 643 49 592 q 157 724 114 694 q 250 753 200 753 q 343 724 300 753 q 419 643 386 694 q 470 523 451 592 q 489 376 489 454 q 470 230 489 299 q 419 110 451 161 q 343 30 386 60 q 250 0 300 0 q 157 30 200 0 q 81 110 114 60 q 30 230 49 161 q 11 376 11 299 m 250 47 q 288 73 269 47 q 319 144 306 99 q 340 249 332 189 q 347 376 347 308 q 340 504 347 444 q 319 609 332 564 q 288 680 306 654 q 250 706 269 706 q 212 680 229 706 q 182 609 194 654 q 162 504 169 564 q 154 376 154 444 q 162 249 154 308 q 182 144 169 189 q 212 73 194 99 q 250 47 229 47 m 90 776 l 196 960 l 296 960 l 403 776 l 283 776 l 224 878 l 164 776 l 90 776 z "},"õ":{"ha":478,"x_min":11,"x_max":489,"o":"m 11 376 q 30 523 11 454 q 81 643 49 592 q 157 724 114 694 q 250 753 200 753 q 343 724 300 753 q 419 643 386 694 q 470 523 451 592 q 489 376 489 454 q 470 230 489 299 q 419 110 451 161 q 343 30 386 60 q 250 0 300 0 q 157 30 200 0 q 81 110 114 60 q 30 230 49 161 q 11 376 11 299 m 250 47 q 288 73 269 47 q 319 144 306 99 q 340 249 332 189 q 347 376 347 308 q 340 504 347 444 q 319 609 332 564 q 288 680 306 654 q 250 706 269 706 q 212 680 229 706 q 182 609 194 654 q 162 504 169 564 q 154 376 154 444 q 162 249 154 308 q 182 144 169 189 q 212 73 194 99 q 250 47 229 47 m 82 921 q 107 940 92 932 q 137 953 118 947 q 181 956 156 958 q 230 949 208 953 q 271 946 251 946 q 303 950 289 946 q 329 967 317 954 l 397 881 q 369 850 385 863 q 338 831 357 839 q 296 826 319 822 q 247 836 269 831 q 204 842 225 842 q 174 837 189 842 q 144 819 160 832 q 114 863 126 843 q 92 897 101 881 q 82 921 82 914 z "},"ö":{"ha":478,"x_min":11,"x_max":489,"o":"m 11 376 q 30 523 11 454 q 81 643 49 592 q 157 724 114 694 q 250 753 200 753 q 343 724 300 753 q 419 643 386 694 q 470 523 451 592 q 489 376 489 454 q 470 230 489 299 q 419 110 451 161 q 343 30 386 60 q 250 0 300 0 q 157 30 200 0 q 81 110 114 60 q 30 230 49 161 q 11 376 11 299 m 250 47 q 288 73 269 47 q 319 144 306 99 q 340 249 332 189 q 347 376 347 308 q 340 504 347 444 q 319 609 332 564 q 288 680 306 654 q 250 706 269 706 q 212 680 229 706 q 182 609 194 654 q 162 504 169 564 q 154 376 154 444 q 162 249 154 308 q 182 144 169 189 q 212 73 194 99 q 250 47 229 47 m 256 857 q 277 910 256 889 q 331 932 299 932 q 384 910 363 932 q 406 857 406 889 q 384 803 406 825 q 331 782 363 782 q 277 803 299 782 q 256 857 256 825 m 82 857 q 103 910 82 889 q 157 932 125 932 q 210 910 189 932 q 232 857 232 889 q 210 803 232 825 q 157 782 189 782 q 103 803 125 782 q 82 857 82 825 z "},"ø":{"ha":478,"x_min":8,"x_max":489,"o":"m 11 376 q 30 523 11 454 q 81 643 49 592 q 157 724 114 694 q 250 753 200 753 q 343 724 300 753 q 419 643 386 694 q 470 523 451 592 q 489 376 489 454 q 470 230 489 299 q 419 110 451 161 q 343 30 386 60 q 250 0 300 0 q 157 30 200 0 q 81 110 114 60 q 30 230 49 161 q 11 376 11 299 m 250 47 q 288 73 269 47 q 319 144 306 99 q 340 249 332 189 q 347 376 347 308 q 340 504 347 444 q 319 609 332 564 q 288 680 306 654 q 250 706 269 706 q 212 680 229 706 q 182 609 194 654 q 162 504 169 564 q 154 376 154 444 q 162 249 154 308 q 182 144 169 189 q 212 73 194 99 q 250 47 229 47 m 36 -53 l 311 831 l 292 869 l 485 869 l 453 806 l 182 -69 l 201 -110 l 8 -110 l 36 -53 z "},"œ":{"ha":935,"x_min":11,"x_max":732,"o":"m 11 376 q 30 523 11 454 q 81 643 49 592 q 157 724 114 694 q 250 753 200 753 q 343 724 300 753 q 419 643 386 694 q 470 523 451 592 q 489 376 489 454 q 470 230 489 299 q 419 110 451 161 q 343 30 386 60 q 250 0 300 0 q 157 30 200 0 q 81 110 114 60 q 30 230 49 161 q 11 376 11 299 m 250 47 q 288 73 269 47 q 319 144 306 99 q 340 249 332 189 q 347 376 347 308 q 340 504 347 444 q 319 609 332 564 q 288 680 306 654 q 250 706 269 706 q 212 680 229 706 q 182 609 194 654 q 162 504 169 564 q 154 376 154 444 q 162 249 154 308 q 182 144 169 189 q 212 73 194 99 q 250 47 229 47 m 329 57 l 329 693 l 296 751 l 732 751 q 721 668 729 710 q 703 590 714 632 q 672 510 692 547 q 667 565 671 538 q 659 615 664 589 q 646 661 654 642 l 479 661 l 479 413 l 556 413 l 589 471 l 589 279 l 556 338 l 479 338 l 479 89 l 646 89 q 659 135 654 110 q 667 185 664 161 q 672 240 671 213 q 703 161 692 204 q 721 82 714 118 q 732 -1 729 40 l 296 -1 l 329 57 z "},"š":{"ha":467,"x_min":-7,"x_max":465,"o":"m -7 14 q 40 136 19 82 q 59 181 50 160 q 75 221 68 203 q 87 249 82 239 q 93 260 92 260 q 99 259 96 260 q 105 254 103 258 q 108 242 107 250 q 108 218 108 233 q 106 183 107 203 q 109 146 104 164 q 128 114 114 128 q 171 93 142 100 q 225 94 200 88 q 269 115 250 100 q 299 151 288 131 q 314 193 311 172 q 303 244 317 215 q 265 309 290 272 q 202 392 239 346 q 122 497 165 439 q 74 603 79 556 q 86 684 68 650 q 140 737 104 718 q 217 757 176 756 q 282 741 257 758 q 322 703 307 724 q 349 647 340 679 l 407 667 q 382 633 394 650 q 358 604 371 619 q 332 575 344 589 q 299 550 310 553 q 290 551 293 549 q 294 561 292 556 q 297 574 296 567 q 301 592 299 581 q 303 633 306 613 q 285 663 300 654 q 260 668 278 668 q 231 660 244 668 q 213 629 217 651 q 224 585 210 613 q 260 528 238 558 q 310 465 282 497 q 361 404 338 432 q 408 341 385 376 q 445 267 431 306 q 463 190 460 229 q 446 114 465 150 q 399 56 428 78 q 340 23 371 35 q 280 8 310 11 q 226 4 250 4 q 185 8 204 4 q 151 17 167 11 q 119 27 135 22 q 89 36 104 32 q 60 35 74 39 q 36 24 47 31 q 17 10 25 17 q 6 4 10 4 q -6 10 0 4 q -7 14 -7 11 m 67 954 l 186 954 l 246 851 l 304 954 l 379 954 l 274 771 l 172 771 l 67 954 z "},"ù":{"ha":479,"x_min":7,"x_max":475,"o":"m 150 757 l 115 729 l 115 242 q 141 180 115 206 q 203 154 167 154 q 265 180 239 154 q 290 242 290 206 q 291 288 290 265 q 290 333 292 310 l 290 611 q 281 647 290 633 q 257 669 272 661 l 475 669 q 440 611 443 653 l 440 204 q 424 126 440 163 q 381 63 408 90 q 318 20 354 36 q 240 4 282 4 q 163 20 199 4 q 99 63 126 36 q 56 126 72 90 q 40 204 40 163 l 40 729 l 7 757 l 150 757 m 326 803 l 274 757 l 119 903 l 211 965 l 326 803 z "},"ú":{"ha":479,"x_min":7,"x_max":475,"o":"m 150 757 l 115 729 l 115 242 q 141 180 115 206 q 203 154 167 154 q 265 180 239 154 q 290 242 290 206 q 291 288 290 265 q 290 333 292 310 l 290 611 q 281 647 290 633 q 257 669 272 661 l 475 669 q 440 611 443 653 l 440 204 q 424 126 440 163 q 381 63 408 90 q 318 20 354 36 q 240 4 282 4 q 163 20 199 4 q 99 63 126 36 q 56 126 72 90 q 40 204 40 163 l 40 729 l 7 757 l 150 757 m 367 903 l 213 757 l 160 801 l 275 965 l 367 903 z "},"û":{"ha":479,"x_min":7,"x_max":475,"o":"m 150 757 l 115 729 l 115 242 q 141 180 115 206 q 203 154 167 154 q 265 180 239 154 q 290 242 290 206 q 291 288 290 265 q 290 333 292 310 l 290 611 q 281 647 290 633 q 257 669 272 661 l 475 669 q 440 611 443 653 l 440 204 q 424 126 440 163 q 381 63 408 90 q 318 20 354 36 q 240 4 282 4 q 163 20 199 4 q 99 63 126 36 q 56 126 72 90 q 40 204 40 163 l 40 729 l 7 757 l 150 757 m 88 776 l 193 960 l 293 960 l 400 776 l 281 776 l 221 878 l 161 776 l 88 776 z "},"ü":{"ha":479,"x_min":7,"x_max":475,"o":"m 150 757 l 115 729 l 115 242 q 141 180 115 206 q 203 154 167 154 q 265 180 239 154 q 290 242 290 206 q 291 288 290 265 q 290 333 292 310 l 290 611 q 281 647 290 633 q 257 669 272 661 l 475 669 q 440 611 443 653 l 440 204 q 424 126 440 163 q 381 63 408 90 q 318 20 354 36 q 240 4 282 4 q 163 20 199 4 q 99 63 126 36 q 56 126 72 90 q 40 204 40 163 l 40 729 l 7 757 l 150 757 m 246 844 q 267 898 246 876 q 321 919 289 919 q 374 898 353 919 q 396 844 396 876 q 374 791 396 813 q 321 769 353 769 q 267 791 289 769 q 246 844 246 813 m 72 844 q 94 898 72 876 q 147 919 115 919 q 201 898 179 919 q 222 844 222 876 q 201 791 222 813 q 147 769 179 769 q 94 791 115 769 q 72 844 72 813 z "},"ý":{"ha":419,"x_min":-12,"x_max":431,"o":"m 90 758 l 81 742 l 168 492 l 260 696 l 240 729 l 431 729 l 401 679 l 272 390 l 272 64 l 306 6 l 88 6 l 122 64 l 122 388 l 121 388 l 122 390 l 122 408 l 17 708 l -12 758 l 90 758 m 328 910 l 174 764 l 121 808 l 236 972 l 328 910 z "},"ÿ":{"ha":419,"x_min":-12,"x_max":431,"o":"m 90 758 l 81 742 l 168 492 l 260 696 l 240 729 l 431 729 l 401 679 l 272 390 l 272 64 l 306 6 l 88 6 l 122 64 l 122 388 l 121 388 l 122 390 l 122 408 l 17 708 l -12 758 l 90 758 m 229 853 q 251 906 229 885 q 304 928 272 928 q 358 906 336 928 q 379 853 379 885 q 358 799 379 821 q 304 778 336 778 q 251 799 272 778 q 229 853 229 821 m 56 853 q 77 906 56 885 q 131 928 99 928 q 184 906 163 928 q 206 853 206 885 q 184 799 206 821 q 131 778 163 778 q 77 799 99 778 q 56 853 56 821 z "},"ž":{"ha":507,"x_min":-3,"x_max":508,"o":"m -3 758 l 479 758 l 222 96 l 422 96 q 435 143 431 117 q 443 193 440 169 q 447 249 446 221 q 478 169 467 211 q 497 90 490 126 q 508 6 504 47 l 38 6 l 294 669 l 83 669 q 71 623 76 650 q 63 572 65 596 q 58 517 60 544 q 28 597 39 554 q 10 675 17 639 q -3 758 1 717 m 107 972 l 226 972 l 286 869 l 344 972 l 419 972 l 314 789 l 213 789 l 107 972 z "}}}
